<svg width="159" height="79" viewBox="0 0 159 79" fill="none" xmlns="http://www.w3.org/2000/svg">
<path d="M140.487 43.369L135.834 35.3495C135.762 35.2304 135.659 35.1319 135.537 35.0635C135.415 34.9952 135.278 34.9593 135.137 34.9593C134.997 34.9593 134.86 34.9952 134.737 35.0635C134.615 35.1319 134.513 35.2304 134.44 35.3495L129.788 43.369C129.733 43.4665 129.702 43.5752 129.697 43.6867C129.689 43.7949 129.704 43.9036 129.739 44.0062C129.775 44.1088 129.83 44.2033 129.903 44.2842C129.976 44.3651 130.064 44.4307 130.163 44.4772C130.262 44.5236 130.369 44.55 130.478 44.5548C130.796 44.5618 131.039 44.4029 131.236 44.0629L131.956 42.8199C132.002 42.7399 132.068 42.6733 132.148 42.627C132.229 42.5808 132.32 42.5565 132.413 42.5566H137.845C137.938 42.5566 138.029 42.581 138.109 42.6272C138.19 42.6735 138.256 42.74 138.302 42.8199L139.022 44.0629C139.203 44.3848 139.442 44.545 139.743 44.5548C139.851 44.5589 139.959 44.5413 140.061 44.5031C140.162 44.465 140.255 44.4069 140.333 44.3324C140.412 44.258 140.474 44.1686 140.517 44.0697C140.56 43.9707 140.583 43.8642 140.584 43.7563C140.581 43.6217 140.548 43.4894 140.487 43.369ZM136.607 40.9583H133.662C133.599 40.958 133.537 40.9414 133.483 40.9099C133.428 40.8785 133.383 40.8333 133.351 40.779C133.32 40.7247 133.303 40.6631 133.303 40.6004C133.303 40.5377 133.319 40.4761 133.351 40.4218L134.83 37.8843C134.862 37.8299 134.907 37.7847 134.962 37.7533C135.017 37.7219 135.079 37.7054 135.142 37.7054C135.206 37.7054 135.268 37.7219 135.322 37.7533C135.377 37.7847 135.423 37.8299 135.454 37.8843L136.924 40.4218C136.956 40.4765 136.972 40.5387 136.972 40.6018C136.972 40.665 136.954 40.727 136.922 40.7815C136.89 40.8359 136.844 40.881 136.789 40.912C136.733 40.9431 136.671 40.959 136.607 40.9583ZM49.2668 36.2776C48.6828 33.5498 47.369 31.0292 45.4637 28.9816C43.5584 26.9339 41.1324 25.4351 38.4415 24.6432C35.7506 23.8514 32.8945 23.7957 30.1744 24.4822C27.4543 25.1687 24.971 26.5719 22.9865 28.5438C22.2784 29.2473 21.6393 30.0163 21.078 30.8403C20.912 31.0611 20.7629 31.294 20.6321 31.537C19.5422 33.3529 18.8378 35.3712 18.5621 37.4678C18.2865 39.5643 18.4454 41.6947 19.0291 43.7279C19.6128 45.7612 20.6089 47.6542 21.9562 49.2907C23.3036 50.9271 24.9736 52.2723 26.8636 53.2435C28.7535 54.2147 30.8235 54.7914 32.9461 54.9382C35.0687 55.0849 37.199 54.7985 39.2061 54.0966C41.2132 53.3947 43.0545 52.2922 44.6168 50.8569C46.1792 49.4216 47.4295 47.6838 48.2908 45.7504C48.3841 45.5586 48.4665 45.3619 48.5376 45.161C49.6357 42.3479 49.8919 39.2794 49.2752 36.325L49.2668 36.2776ZM43.8582 29.1918C43.9479 29.2768 44.0363 29.3632 44.1246 29.451C45.4825 30.7956 46.5537 32.3984 47.2742 34.1637C47.2904 34.2035 47.2956 34.2468 47.2893 34.2893C47.2829 34.3317 47.2652 34.3717 47.2379 34.405C47.2107 34.4383 47.175 34.4638 47.1345 34.4787C47.094 34.4936 47.0502 34.4974 47.0077 34.4898C46.5506 34.4128 46.0871 34.3801 45.6237 34.3922C45.4522 34.396 45.285 34.3388 45.1521 34.231C45.0192 34.1232 44.9293 33.9719 44.8987 33.8042C44.6506 32.356 44.2492 30.9379 43.7011 29.5736L43.6128 29.3632C43.5984 29.331 43.5957 29.2949 43.6051 29.261C43.6146 29.2271 43.6356 29.1974 43.6645 29.1772C43.6935 29.157 43.7287 29.1474 43.764 29.15C43.7993 29.1527 43.8326 29.1674 43.8582 29.1918ZM45.3404 38.2828C45.3399 38.2476 45.3506 38.2132 45.3711 38.1845C45.3916 38.1558 45.4207 38.1344 45.4543 38.1232C45.4878 38.112 45.5241 38.1117 45.5578 38.1224C45.5915 38.1331 45.621 38.1541 45.6419 38.1825C45.7597 38.3455 45.8719 38.5099 45.9798 38.6744C46.1229 38.8927 46.2561 39.1101 46.3795 39.3265C46.4176 39.392 46.4336 39.4679 46.4253 39.5431C46.417 39.6182 46.3847 39.6888 46.3332 39.7445C46.1659 39.9303 45.9845 40.1189 45.7891 40.3103L45.5746 40.5249C45.5547 40.5463 45.5286 40.5609 45.4999 40.5668C45.4712 40.5726 45.4414 40.5694 45.4146 40.5576C45.3878 40.5457 45.3655 40.5259 45.3507 40.5008C45.3359 40.4757 45.3293 40.4466 45.332 40.4176C45.3418 40.1849 45.3474 39.9508 45.3516 39.7209C45.3558 39.2345 45.353 38.7566 45.3404 38.2828ZM25.7083 27.9251C28.1287 26.2028 31.0329 25.2805 34.0099 25.2887C34.7986 25.2882 35.5861 25.3521 36.3643 25.4796C36.4094 25.4876 36.4511 25.5082 36.4847 25.539C36.5183 25.5698 36.5424 25.6095 36.554 25.6535C36.5657 25.6974 36.5644 25.7437 36.5504 25.787C36.5365 25.8303 36.5103 25.8686 36.4751 25.8976C35.7291 26.4801 35.035 27.3413 34.4208 28.4574C34.3481 28.5895 34.2326 28.6931 34.093 28.7516C33.9535 28.81 33.7982 28.8198 33.6523 28.7793C31.7414 28.224 29.7559 27.9641 27.7655 28.0087C27.1159 28.0298 26.4686 28.0978 25.8289 28.2122C25.7935 28.2172 25.7573 28.2103 25.7262 28.1927C25.6951 28.175 25.6708 28.1476 25.6572 28.1147C25.6435 28.0817 25.6412 28.0453 25.6508 28.0109C25.6603 27.9766 25.681 27.9464 25.7097 27.9251H25.7083ZM23.6666 49.1533C23.3665 48.5889 23.755 47.2832 25.7294 45.2989C25.7781 45.2501 25.8159 45.1916 25.8403 45.1273C25.8648 45.0629 25.8753 44.9942 25.8712 44.9256C25.8671 44.8569 25.8484 44.7899 25.8165 44.7289C25.7846 44.6679 25.7401 44.6143 25.6859 44.5715L25.4503 44.3848C25.3556 44.3084 25.2358 44.2697 25.114 44.2762C24.9923 44.2826 24.8772 44.3337 24.7912 44.4196L24.7141 44.4963C23.7325 45.5024 23.0314 46.4346 22.65 47.2721C22.625 47.3262 22.5859 47.3728 22.5368 47.4069C22.4876 47.441 22.4302 47.4615 22.3705 47.4662C22.3107 47.4709 22.2508 47.4596 22.1969 47.4336C22.1429 47.4075 22.097 47.3677 22.0638 47.3181C20.5213 44.9991 19.7022 42.2791 19.7093 39.4993C19.7086 38.5028 19.813 37.5089 20.0207 36.534C20.019 36.497 20.0322 36.4609 20.0573 36.4336C20.0824 36.4063 20.1174 36.39 20.1546 36.3884C20.1918 36.3867 20.2281 36.3998 20.2556 36.4248C20.2831 36.4497 20.2994 36.4845 20.3011 36.5214C20.6385 37.5837 21.1253 38.5932 21.7469 39.5202C22.7216 40.9753 23.8953 42.2884 25.2344 43.4219C25.714 43.84 26.216 44.2343 26.7474 44.6189C27.8472 45.4188 29.0071 46.1339 30.2167 46.7579C30.765 47.0366 31.2993 47.3153 31.8462 47.5549C31.9966 47.6229 32.1592 47.6603 32.3245 47.6649C32.4897 47.6694 32.6541 47.641 32.8081 47.5814C33.0662 47.4811 33.3256 47.3766 33.5864 47.2679C33.724 47.2109 33.8365 47.1066 33.9031 46.9741C33.9698 46.8416 33.9863 46.6897 33.9496 46.5461C33.9398 46.5084 33.9328 46.4792 33.9286 46.4611C33.478 44.5084 33.2429 42.5128 33.2274 40.5096V40.4329C33.2274 40.3173 33.2274 40.2002 33.2274 40.0846C33.2274 40.0483 33.2274 39.9856 33.2274 39.9452V39.9006C33.2274 39.7682 33.2274 39.6359 33.2274 39.5021C33.2274 39.1384 33.2471 38.7761 33.2667 38.418C33.4069 35.8554 33.8374 33.4475 34.5287 31.4227C34.5596 31.3327 34.5533 31.2343 34.5112 31.1489C34.4692 31.0635 34.3948 30.9981 34.3044 30.9671C34.1193 30.9058 33.9356 30.8458 33.7533 30.7887C33.664 30.7608 33.5673 30.7686 33.4837 30.8105C33.4001 30.8524 33.3364 30.9251 33.3059 31.0131C32.5529 33.212 32.0874 35.8219 31.9626 38.5838C31.955 38.756 31.9043 38.9237 31.8152 39.0716C31.7261 39.2195 31.6013 39.343 31.4521 39.431C29.896 40.3392 28.4046 41.3528 26.9886 42.4646C26.8565 42.569 26.6918 42.6241 26.523 42.6206C26.3543 42.617 26.1921 42.5549 26.0645 42.4451C24.8199 41.3927 23.7287 40.1734 22.8224 38.8221C21.186 36.325 20.7961 33.9728 21.7272 32.2003L21.7343 32.1878C21.8534 31.9913 21.9769 31.799 22.1045 31.6081C23.1744 30.2021 25.1643 29.3869 27.8034 29.2949C27.9698 29.2893 28.138 29.2866 28.3082 29.2866C30.044 29.3053 31.7687 29.5651 33.4322 30.0585L33.5485 30.0934L33.6383 30.1185C34.0468 30.2401 34.4558 30.3739 34.8653 30.5198L34.8947 30.5295L35.2145 30.648L35.3154 30.6856L35.4122 30.7218C36.292 31.0601 37.1524 31.4463 37.9896 31.8784C39.5822 32.6955 41.0808 33.6823 42.4587 34.8214C39.9528 35.3913 37.0416 36.4936 34.1123 37.9762C34.0456 38.0095 33.989 38.0599 33.9483 38.1221C33.9077 38.1843 33.8844 38.2561 33.8809 38.3302C33.8697 38.5099 33.857 38.8722 33.8472 39.1663C33.8458 39.2075 33.8554 39.2484 33.8749 39.2848C33.8944 39.3213 33.9233 39.352 33.9585 39.3738C33.9937 39.3957 34.0341 39.408 34.0756 39.4095C34.1171 39.411 34.1583 39.4016 34.195 39.3822C37.0935 37.8689 39.9879 36.7346 42.4685 36.141C42.6925 36.0869 42.8884 35.952 43.0179 35.7625C43.1475 35.5729 43.2016 35.3423 43.1697 35.1154C43.1238 34.7866 43.0724 34.4614 43.0154 34.14C42.9436 33.7416 42.7239 33.3846 42.3998 33.1395C41.1979 32.233 39.92 31.4306 38.58 30.7413C37.6697 30.2709 36.7334 29.8522 35.7754 29.4872C35.7279 29.4694 35.6849 29.4416 35.6493 29.4057C35.6136 29.3699 35.5862 29.3268 35.5689 29.2794C35.5516 29.232 35.5448 29.1815 35.549 29.1312C35.5531 29.081 35.5682 29.0323 35.5931 28.9883C36.5621 27.2646 37.7147 26.3003 38.838 26.3003H38.873C40.1982 26.324 41.5192 27.6938 42.4966 30.0627C43.0271 31.3767 43.4136 32.7437 43.6492 34.14C43.7614 34.781 43.8512 35.4429 43.9185 36.1215L43.9002 36.1327L43.9241 36.1564C44.0387 37.3321 44.0855 38.5133 44.0643 39.6944C44.0503 40.4608 44.0096 41.216 43.9437 41.956C41.9537 43.521 39.8198 44.8964 37.5703 46.0639C36.7794 46.482 35.9871 46.868 35.2046 47.2261L35.1682 47.2428L34.9873 47.3236C34.3385 47.6163 33.6972 47.8857 33.0634 48.1318L32.9568 48.1723L32.8166 48.2238L32.4996 48.3436L32.4127 48.3757L32.0299 48.515L31.9836 48.5332C30.7379 48.9846 29.4596 49.3414 28.1595 49.6006C25.3115 50.1426 23.9793 49.7246 23.6666 49.1533ZM27.586 43.6365C28.9647 42.5348 30.4207 41.5322 31.9429 40.6364C31.9672 42.5937 32.1894 44.5437 32.6062 46.4569C32.006 46.2014 31.4082 45.9227 30.8127 45.6208C29.6887 45.0406 28.6101 44.3773 27.586 43.6365ZM35.8595 53.5942C35.2475 53.6726 34.6311 53.7117 34.0141 53.7113C31.2766 53.7189 28.5952 52.9398 26.2931 51.4678C26.2589 51.4459 26.2325 51.4137 26.2179 51.3759C26.2033 51.3381 26.2011 51.2967 26.2117 51.2576C26.2223 51.2185 26.2452 51.1838 26.2769 51.1585C26.3087 51.1331 26.3478 51.1185 26.3885 51.1167H26.4964C27.135 51.0711 27.7701 50.9859 28.3979 50.8617C30.0367 50.5301 31.6436 50.0588 33.2008 49.4529C33.2745 49.4257 33.356 49.4282 33.4279 49.4596C33.4999 49.4911 33.5567 49.5491 33.5864 49.6215C34.2483 51.2212 35.0616 52.4293 35.9703 53.1985C36.0031 53.2268 36.0271 53.2639 36.0395 53.3053C36.0519 53.3467 36.0522 53.3907 36.0402 53.4323C36.0283 53.4738 36.0047 53.5111 35.9722 53.5398C35.9397 53.5685 35.8996 53.5874 35.8567 53.5942H35.8595ZM41.9062 49.7998C40.8839 51.7953 39.6275 52.9156 38.4089 52.8933C37.0837 52.8696 35.7628 51.4999 34.784 49.131C34.7544 49.0584 34.7546 48.9773 34.7845 48.9049C34.8144 48.8325 34.8715 48.7746 34.9438 48.7436L34.9747 48.731C35.0387 48.7028 35.1107 48.6979 35.178 48.7171C36.9106 49.215 38.7033 49.4761 40.5067 49.4933C40.6904 49.4933 40.8727 49.4933 41.0522 49.4835C41.2639 49.4765 41.4729 49.4654 41.6776 49.4487C41.7199 49.4473 41.7618 49.457 41.7992 49.4765C41.8366 49.4961 41.8682 49.5251 41.891 49.5605C41.9137 49.5959 41.9268 49.6366 41.929 49.6785C41.9312 49.7205 41.9224 49.7623 41.9034 49.7998H41.9062ZM42.3493 48.0831C41.9036 48.1472 41.4546 48.1868 41.0045 48.2015C39.7969 48.235 38.5891 48.1392 37.402 47.9159C37.3688 47.9097 37.3384 47.8933 37.3151 47.8689C37.2917 47.8446 37.2767 47.8137 37.272 47.7804C37.2674 47.7471 37.2734 47.7133 37.2892 47.6835C37.3049 47.6538 37.3297 47.6298 37.36 47.6149C37.6306 47.4755 37.9027 47.3362 38.1733 47.1968C39.9923 46.2445 41.7424 45.1675 43.4108 43.9737C43.4367 43.955 43.4677 43.9444 43.4996 43.9433C43.5316 43.9421 43.5632 43.9504 43.5905 43.9671C43.6177 43.9839 43.6393 44.0083 43.6525 44.0372C43.6657 44.0662 43.6699 44.0984 43.6647 44.1298C43.4643 45.352 43.1651 46.5561 42.77 47.7305C42.7393 47.8221 42.6838 47.9035 42.6096 47.9657C42.5354 48.0279 42.4453 48.0685 42.3493 48.0831ZM44.4527 49.2104C44.3448 49.3247 44.2354 49.4375 44.1232 49.549C43.9278 49.7432 43.7282 49.929 43.5244 50.1064C43.4973 50.1308 43.4624 50.1451 43.4258 50.1469C43.3893 50.1486 43.3532 50.1378 43.3238 50.1161C43.2943 50.0944 43.2734 50.0633 43.2645 50.028C43.2555 49.9927 43.2592 49.9554 43.2748 49.9225L43.3365 49.7831C43.4225 49.5973 43.5053 49.405 43.5847 49.2062C43.5945 49.1836 43.6092 49.1634 43.6279 49.1472C43.6466 49.131 43.6688 49.1193 43.6927 49.1128C43.896 49.0627 44.0938 49.0055 44.2859 48.9442C44.3212 48.9266 44.3618 48.9228 44.3998 48.9334C44.4379 48.9441 44.4705 48.9684 44.4914 49.0017C44.5123 49.035 44.5199 49.0749 44.5128 49.1135C44.5056 49.1521 44.4842 49.1867 44.4527 49.2104ZM47.3274 44.7025C47.2587 44.8767 47.1872 45.0481 47.1101 45.2195C47.0989 45.2432 47.0877 45.2669 47.075 45.2906C46.6039 46.1921 45.813 46.9028 44.7556 47.3975C44.7028 47.4212 44.6443 47.4295 44.5869 47.4213C44.5295 47.4132 44.4756 47.3891 44.4315 47.3517C44.3874 47.3143 44.3549 47.2652 44.3378 47.2101C44.3207 47.1551 44.3197 47.0963 44.335 47.0408C44.7 45.7216 44.9634 44.3767 45.123 43.0178C45.1558 42.7531 45.2868 42.5101 45.4904 42.3364C45.9252 41.9616 46.3318 41.5881 46.7048 41.2216C46.7466 41.1798 46.7985 41.1494 46.8556 41.1334C46.9127 41.1174 46.973 41.1164 47.0306 41.1304C47.0882 41.1444 47.1411 41.1731 47.1843 41.2135C47.2275 41.2539 47.2594 41.3047 47.277 41.361C47.6458 42.5761 47.6668 43.7118 47.3288 44.7025H47.3274ZM47.6079 38.0445C47.5833 38.088 47.5478 38.1245 47.5048 38.1504C47.4618 38.1762 47.4129 38.1907 47.3626 38.1922C47.3124 38.1937 47.2627 38.1824 47.2182 38.1592C47.1737 38.136 47.136 38.1018 47.1087 38.0598L47.054 37.9748C46.6122 37.3035 46.1225 36.6646 45.5886 36.063C45.5589 36.0287 45.5396 35.9867 45.5332 35.9418C45.5267 35.897 45.5333 35.8513 45.5522 35.8101C45.5711 35.7689 45.6015 35.734 45.6397 35.7094C45.678 35.6848 45.7225 35.6716 45.7681 35.6714C47.0498 35.6714 47.7215 35.9864 47.9262 36.3682C48.1085 36.6915 48.0566 37.253 47.6149 38.0417L47.6079 38.0445ZM48.2992 39.9229C48.2987 39.9433 48.2911 39.9629 48.2778 39.9784C48.2645 39.9939 48.2462 40.0044 48.226 40.0081C48.2058 40.0119 48.185 40.0087 48.1669 39.999C48.1489 39.9893 48.1347 39.9738 48.1267 39.955C48.1113 39.9173 48.0945 39.8783 48.0777 39.8407C48.0623 39.8062 48.0564 39.7684 48.0606 39.7309C48.0648 39.6934 48.0789 39.6578 48.1015 39.6275L48.1534 39.5592C48.2165 39.4784 48.3062 39.4909 48.3062 39.5801C48.3133 39.6986 48.3104 39.8017 48.3062 39.9229H48.2992ZM93.6829 36.5619H99.0593C99.1731 36.5615 99.2856 36.5372 99.3893 36.4905C99.493 36.4439 99.5856 36.3759 99.661 36.2911C99.7363 36.2064 99.7928 36.1067 99.8266 35.9987C99.8604 35.8907 99.8709 35.7768 99.8572 35.6645C99.8287 35.4695 99.73 35.2914 99.5794 35.1633C99.4288 35.0352 99.2365 34.9657 99.0383 34.9677H92.362C92.1491 34.9685 91.9451 35.0528 91.7946 35.2024C91.6441 35.352 91.5592 35.5547 91.5585 35.7662V43.755C91.5592 43.9665 91.6441 44.1692 91.7946 44.3187C91.9451 44.4683 92.1491 44.5527 92.362 44.5534H99.0663C99.18 44.553 99.2924 44.5287 99.3959 44.4822C99.4995 44.4356 99.5921 44.3678 99.6674 44.2832C99.7428 44.1985 99.7992 44.099 99.8332 43.9912C99.8671 43.8834 99.8777 43.7696 99.8642 43.6574C99.8357 43.4624 99.737 43.2844 99.5864 43.1562C99.4358 43.0281 99.2435 42.9586 99.0453 42.9607H93.6899C93.5512 42.9607 93.4182 42.9059 93.3201 42.8084C93.222 42.711 93.1669 42.5788 93.1669 42.4409V41.0823C93.1669 40.9444 93.222 40.8122 93.3201 40.7147C93.4182 40.6173 93.5512 40.5625 93.6899 40.5625H97.7257C97.8394 40.5621 97.9518 40.5378 98.0554 40.4913C98.159 40.4447 98.2515 40.3769 98.3268 40.2923C98.4022 40.2076 98.4587 40.1081 98.4926 40.0003C98.5265 39.8925 98.5371 39.7787 98.5236 39.6665C98.4951 39.4715 98.3964 39.2935 98.2458 39.1653C98.0952 39.0372 97.9029 38.9677 97.7047 38.9698H93.6899C93.5512 38.9698 93.4182 38.915 93.3201 38.8175C93.222 38.7201 93.1669 38.5879 93.1669 38.45V37.0914C93.1656 37.0223 93.1781 36.9537 93.2038 36.8895C93.2295 36.8253 93.2679 36.7668 93.3166 36.7175C93.3653 36.6682 93.4234 36.6291 93.4875 36.6023C93.5516 36.5756 93.6204 36.5618 93.6899 36.5619H93.6829ZM110.116 39.6665C109.379 39.1997 108.386 38.96 107.139 38.96C105.49 38.96 104.659 38.5601 104.659 37.7602C104.659 36.9604 105.49 36.5619 107.139 36.5619C108.038 36.5595 108.928 36.7308 109.76 37.0663C110.244 37.2126 110.579 37.0398 110.766 36.573C110.927 36.155 110.712 35.7606 110.271 35.5613C109.282 35.1484 108.218 34.9443 107.146 34.9622C105.926 34.9622 104.948 35.2144 104.183 35.7077C103.832 35.9221 103.544 36.2244 103.347 36.5844C103.15 36.9443 103.051 37.3493 103.061 37.7589C103.061 38.6785 103.437 39.385 104.175 39.8491C104.912 40.3131 105.904 40.5555 107.151 40.5555C108.8 40.5555 109.631 40.9555 109.631 41.7553C109.631 42.5552 108.8 42.9537 107.151 42.9537H106.748C105.858 42.9407 104.977 42.7694 104.147 42.4479C104.048 42.4112 103.944 42.3945 103.839 42.3988C103.734 42.4032 103.631 42.4284 103.536 42.4732C103.441 42.5179 103.356 42.5811 103.286 42.6591C103.216 42.7371 103.162 42.8283 103.129 42.9272C103.057 43.1305 103.068 43.3539 103.161 43.5486C103.254 43.7434 103.421 43.8937 103.625 43.9668C104.616 44.3685 105.678 44.5676 106.748 44.552H107.151C108.371 44.552 109.349 44.2998 110.095 43.8065C110.451 43.5956 110.744 43.2945 110.945 42.9341C111.145 42.5737 111.245 42.1669 111.235 41.7553C111.235 40.8384 110.86 40.1319 110.123 39.6665H110.116ZM126.212 34.9636C125.999 34.9639 125.794 35.0481 125.644 35.1977C125.493 35.3474 125.408 35.5502 125.407 35.762V43.755C125.416 43.9611 125.504 44.156 125.654 44.2988C125.804 44.4417 126.003 44.5214 126.211 44.5214C126.419 44.5214 126.618 44.4417 126.768 44.2988C126.918 44.156 127.007 43.9611 127.015 43.755V35.762C127.015 35.5517 126.931 35.35 126.782 35.2007C126.633 35.0513 126.431 34.9661 126.219 34.9636H126.212ZM121.96 34.9636H113.945C113.831 34.9637 113.718 34.9878 113.615 35.0343C113.511 35.0809 113.418 35.1487 113.343 35.2333C113.268 35.318 113.211 35.4176 113.177 35.5255C113.143 35.6335 113.133 35.7473 113.147 35.8596C113.175 36.0548 113.273 36.2332 113.424 36.3614C113.575 36.4897 113.767 36.5589 113.966 36.5563H116.638C116.778 36.5563 116.911 36.6112 117.009 36.7089C117.108 36.8067 117.163 36.9392 117.163 37.0774V43.755C117.163 43.8679 117.188 43.9796 117.235 44.0825C117.281 44.1855 117.35 44.2774 117.435 44.3523C117.52 44.4271 117.62 44.4833 117.729 44.517C117.837 44.5507 117.952 44.5612 118.065 44.5478C118.261 44.5195 118.44 44.4212 118.569 44.2712C118.698 44.1213 118.768 43.9299 118.766 43.7327V37.083C118.765 37.0145 118.779 36.9467 118.805 36.8834C118.832 36.82 118.87 36.7625 118.919 36.7141C118.968 36.6657 119.026 36.6273 119.089 36.6012C119.153 36.575 119.221 36.5617 119.29 36.5619H121.983C122.096 36.5615 122.209 36.5372 122.313 36.4905C122.416 36.4439 122.509 36.3759 122.585 36.2912C122.66 36.2065 122.717 36.1068 122.751 35.9988C122.785 35.8908 122.795 35.7768 122.782 35.6645C122.754 35.4695 122.657 35.291 122.507 35.1621C122.357 35.0332 122.165 34.9627 121.967 34.9636H121.96ZM88.1186 42.9565H82.7661C82.6269 42.9565 82.4933 42.9016 82.3948 42.8039C82.2962 42.7062 82.2406 42.5737 82.2402 42.4353V35.7829C82.2423 35.5859 82.1724 35.3949 82.0434 35.2452C81.9145 35.0955 81.7353 34.9974 81.5391 34.9691C81.4261 34.9555 81.3115 34.9659 81.2028 34.9995C81.0941 35.0331 80.9938 35.0892 80.9085 35.1641C80.8232 35.239 80.7548 35.331 80.7078 35.4341C80.6609 35.5371 80.6364 35.6489 80.636 35.762V43.755C80.6368 43.9667 80.7219 44.1696 80.8727 44.3192C81.0235 44.4688 81.2278 44.553 81.4409 44.5534H88.1439C88.2577 44.5532 88.3701 44.5291 88.4738 44.4826C88.5775 44.4361 88.6701 44.3683 88.7455 44.2836C88.8209 44.199 88.8774 44.0994 88.9112 43.9914C88.945 43.8835 88.9555 43.7696 88.9418 43.6574C88.9147 43.4607 88.8159 43.2807 88.6642 43.1515C88.5125 43.0224 88.3184 42.953 88.1186 42.9565ZM61.9056 36.5619C62.3286 36.5544 62.7485 36.6347 63.1384 36.7976C63.5284 36.9605 63.8798 37.2025 64.1703 37.508C64.285 37.6174 64.4293 37.6911 64.5855 37.7202C64.7418 37.7492 64.9031 37.7323 65.0498 37.6715C65.1965 37.6106 65.3221 37.5086 65.4113 37.3778C65.5004 37.247 65.5492 37.0932 65.5516 36.9353C65.5467 36.8107 65.5141 36.6888 65.4562 36.5782C65.3982 36.4676 65.3164 36.3711 65.2164 36.2957C64.529 35.6495 63.6651 35.219 62.7327 35.058C61.8004 34.897 60.841 35.0126 59.9744 35.3903C59.1078 35.7681 58.3725 36.3913 57.8603 37.182C57.3482 37.9727 57.0819 38.8959 57.0948 39.8362C57.1076 40.7765 57.3991 41.6921 57.9327 42.4687C58.4664 43.2453 59.2185 43.8484 60.0951 44.2026C60.9717 44.5568 61.9339 44.6464 62.8615 44.4602C63.7891 44.274 64.6409 43.8203 65.3104 43.1558C65.4514 43.0036 65.5277 42.8031 65.5233 42.5963C65.519 42.3895 65.4343 42.1923 65.287 42.0462C65.1397 41.9 64.9412 41.8161 64.7331 41.812C64.525 41.8079 64.3233 41.884 64.1703 42.0243C63.8773 42.3256 63.5251 42.5639 63.1355 42.7243C62.7459 42.8847 62.3273 42.9637 61.9056 42.9565C61.4824 42.9585 61.063 42.8772 60.6717 42.7172C60.2803 42.5572 59.9247 42.3217 59.6254 42.0243C59.3262 41.727 59.0892 41.3736 58.9282 40.9847C58.7672 40.5958 58.6853 40.179 58.6874 39.7585C58.6801 39.3395 58.7597 38.9235 58.921 38.5364C59.0824 38.1492 59.3222 37.7992 59.6255 37.508C59.9207 37.2044 60.2752 36.9638 60.6673 36.8011C61.0594 36.6384 61.4808 36.557 61.9056 36.5619ZM71.1608 36.5619H76.5357C76.6496 36.5615 76.7621 36.5372 76.8659 36.4905C76.9697 36.4439 77.0623 36.3759 77.1378 36.2912C77.2133 36.2065 77.2699 36.1068 77.3039 35.9988C77.3379 35.8908 77.3485 35.7768 77.335 35.6645C77.3065 35.4693 77.2076 35.291 77.0567 35.1628C76.9058 35.0347 76.7132 34.9653 76.5147 34.9677H69.8258C69.6128 34.9685 69.4087 35.0528 69.2579 35.2023C69.1072 35.3519 69.022 35.5545 69.0209 35.7662V43.755C69.022 43.9666 69.1072 44.1693 69.2579 44.3188C69.4087 44.4684 69.6128 44.5527 69.8258 44.5534H76.5287C76.6425 44.5532 76.755 44.5291 76.8588 44.4826C76.9626 44.4361 77.0552 44.3683 77.1307 44.2837C77.2062 44.199 77.2629 44.0995 77.2969 43.9915C77.3309 43.8836 77.3415 43.7697 77.328 43.6574C77.2995 43.4622 77.2006 43.2839 77.0497 43.1558C76.8988 43.0276 76.7062 42.9583 76.5077 42.9607H71.1537C71.0849 42.9607 71.0168 42.9472 70.9533 42.921C70.8897 42.8948 70.832 42.8564 70.7834 42.8079C70.7348 42.7595 70.6963 42.7021 70.6701 42.6389C70.6439 42.5756 70.6305 42.5079 70.6307 42.4395V41.0795C70.6305 41.0111 70.6439 40.9434 70.6701 40.8802C70.6963 40.8169 70.7348 40.7595 70.7834 40.7111C70.832 40.6626 70.8897 40.6242 70.9533 40.598C71.0168 40.5718 71.0849 40.5583 71.1537 40.5583H75.1881C75.302 40.5581 75.4144 40.534 75.5182 40.4875C75.622 40.441 75.7146 40.3732 75.7902 40.2886C75.8657 40.204 75.9223 40.1044 75.9563 39.9965C75.9903 39.8885 76.0009 39.7746 75.9874 39.6623C75.9589 39.4671 75.86 39.2889 75.7091 39.1607C75.5582 39.0325 75.3656 38.9632 75.1671 38.9656H71.1537C71.0849 38.9656 71.0168 38.9521 70.9533 38.9259C70.8897 38.8997 70.832 38.8613 70.7834 38.8129C70.7348 38.7645 70.6963 38.707 70.6701 38.6438C70.6439 38.5805 70.6305 38.5128 70.6307 38.4444V37.0886C70.6298 37.0198 70.6426 36.9514 70.6685 36.8875C70.6943 36.8237 70.7327 36.7656 70.7814 36.7166C70.8301 36.6675 70.888 36.6286 70.9519 36.6021C71.0159 36.5755 71.0845 36.5619 71.1537 36.5619H71.1608Z" fill="white"/>
</svg>
