<svg width="279" height="53" viewBox="0 0 279 53" fill="none" xmlns="http://www.w3.org/2000/svg">
<path d="M59.3672 36.9375V42H42.2109V36.9375H59.3672ZM44.1562 7.875V42H37.7109V7.875H44.1562ZM74.7797 36.6094V24.9141C74.7797 24.0547 74.6312 23.3125 74.3344 22.6875C74.0375 22.0625 73.5844 21.5781 72.975 21.2344C72.3656 20.8906 71.5922 20.7188 70.6547 20.7188C69.8266 20.7188 69.1 20.8594 68.475 21.1406C67.8656 21.4219 67.3969 21.8203 67.0687 22.3359C66.7406 22.8359 66.5766 23.4141 66.5766 24.0703H60.3656C60.3656 23.0234 60.6156 22.0312 61.1156 21.0938C61.6156 20.1406 62.3266 19.2969 63.2484 18.5625C64.1859 17.8125 65.3031 17.2266 66.6 16.8047C67.9125 16.3828 69.3812 16.1719 71.0062 16.1719C72.9281 16.1719 74.6391 16.5 76.1391 17.1562C77.6547 17.7969 78.8422 18.7656 79.7016 20.0625C80.5766 21.3594 81.0141 22.9922 81.0141 24.9609V36.0234C81.0141 37.2891 81.0922 38.375 81.2484 39.2812C81.4203 40.1719 81.6703 40.9453 81.9984 41.6016V42H75.6937C75.3969 41.3594 75.1703 40.5469 75.0141 39.5625C74.8578 38.5625 74.7797 37.5781 74.7797 36.6094ZM75.6469 26.5547L75.6937 30.2344H71.7797C70.8109 30.2344 69.9594 30.3359 69.225 30.5391C68.4906 30.7266 67.8891 31.0078 67.4203 31.3828C66.9516 31.7422 66.6 32.1797 66.3656 32.6953C66.1312 33.1953 66.0141 33.7656 66.0141 34.4062C66.0141 35.0312 66.1547 35.5938 66.4359 36.0938C66.7328 36.5938 67.1547 36.9922 67.7016 37.2891C68.2641 37.5703 68.9203 37.7109 69.6703 37.7109C70.7641 37.7109 71.7172 37.4922 72.5297 37.0547C73.3422 36.6016 73.975 36.0547 74.4281 35.4141C74.8812 34.7734 75.1234 34.1641 75.1547 33.5859L76.9359 36.2578C76.7172 36.8984 76.3891 37.5781 75.9516 38.2969C75.5141 39.0156 74.9516 39.6875 74.2641 40.3125C73.5766 40.9375 72.7484 41.4531 71.7797 41.8594C70.8109 42.2656 69.6859 42.4688 68.4047 42.4688C66.7641 42.4688 65.2953 42.1406 63.9984 41.4844C62.7016 40.8281 61.6781 39.9297 60.9281 38.7891C60.1781 37.6484 59.8031 36.3516 59.8031 34.8984C59.8031 33.5547 60.0531 32.3672 60.5531 31.3359C61.0531 30.3047 61.7953 29.4375 62.7797 28.7344C63.7641 28.0156 64.9828 27.4766 66.4359 27.1172C67.9047 26.7422 69.5844 26.5547 71.475 26.5547H75.6469ZM91.2469 39.1875L98.0437 16.6406H104.677L94.5047 45.8438C94.2703 46.4688 93.9656 47.1484 93.5906 47.8828C93.2312 48.6172 92.7469 49.3125 92.1375 49.9688C91.5281 50.6406 90.7625 51.1875 89.8406 51.6094C88.9344 52.0312 87.8328 52.2422 86.5359 52.2422C85.9734 52.2422 85.4734 52.2031 85.0359 52.125C84.5984 52.0469 84.1375 51.9453 83.6531 51.8203V47.1797C83.8094 47.1953 83.9891 47.2031 84.1922 47.2031C84.4109 47.2188 84.5984 47.2266 84.7547 47.2266C85.6609 47.2266 86.4109 47.1172 87.0047 46.8984C87.5984 46.6953 88.075 46.3594 88.4344 45.8906C88.8094 45.4375 89.1219 44.8438 89.3719 44.1094L91.2469 39.1875ZM87.8953 16.6406L93.6375 35.3203L94.6453 41.8594L90.3797 42.6328L81.2156 16.6406H87.8953ZM116.339 42.4688C114.417 42.4688 112.691 42.1562 111.159 41.5312C109.628 40.9062 108.323 40.0391 107.245 38.9297C106.183 37.8047 105.363 36.5 104.784 35.0156C104.222 33.5156 103.941 31.9062 103.941 30.1875V29.25C103.941 27.2969 104.222 25.5234 104.784 23.9297C105.347 22.3203 106.144 20.9375 107.175 19.7812C108.206 18.625 109.441 17.7344 110.878 17.1094C112.316 16.4844 113.902 16.1719 115.636 16.1719C117.433 16.1719 119.019 16.4766 120.394 17.0859C121.769 17.6797 122.917 18.5234 123.839 19.6172C124.761 20.7109 125.456 22.0234 125.925 23.5547C126.394 25.0703 126.628 26.75 126.628 28.5938V31.1953H106.753V26.9297H120.534V26.4609C120.503 25.4766 120.316 24.5781 119.972 23.7656C119.628 22.9375 119.097 22.2812 118.378 21.7969C117.659 21.2969 116.73 21.0469 115.589 21.0469C114.667 21.0469 113.863 21.25 113.175 21.6562C112.503 22.0469 111.941 22.6094 111.488 23.3438C111.05 24.0625 110.722 24.9219 110.503 25.9219C110.284 26.9219 110.175 28.0312 110.175 29.25V30.1875C110.175 31.25 110.316 32.2344 110.597 33.1406C110.894 34.0469 111.323 34.8359 111.886 35.5078C112.464 36.1641 113.152 36.6797 113.948 37.0547C114.761 37.4141 115.683 37.5938 116.714 37.5938C118.011 37.5938 119.183 37.3438 120.23 36.8438C121.292 36.3281 122.214 35.5703 122.995 34.5703L126.113 37.8047C125.581 38.5859 124.863 39.3359 123.956 40.0547C123.066 40.7734 121.988 41.3594 120.722 41.8125C119.456 42.25 117.995 42.4688 116.339 42.4688ZM134.564 21.8203V42H128.377V16.6406H134.236L134.564 21.8203ZM142.275 16.4766L142.181 22.2422C141.838 22.1797 141.447 22.1328 141.009 22.1016C140.588 22.0703 140.189 22.0547 139.814 22.0547C138.861 22.0547 138.025 22.1875 137.306 22.4531C136.588 22.7031 135.986 23.0703 135.502 23.5547C135.033 24.0391 134.673 24.6328 134.423 25.3359C134.173 26.0234 134.033 26.8047 134.002 27.6797L132.666 27.5156C132.666 25.9062 132.83 24.4141 133.158 23.0391C133.486 21.6641 133.963 20.4609 134.588 19.4297C135.213 18.3984 135.994 17.6016 136.931 17.0391C137.884 16.4609 138.978 16.1719 140.213 16.1719C140.556 16.1719 140.923 16.2031 141.314 16.2656C141.72 16.3125 142.041 16.3828 142.275 16.4766ZM187.144 36.6094V6H193.378V42H187.753L187.144 36.6094ZM170.855 29.625V29.1328C170.855 27.1953 171.073 25.4375 171.511 23.8594C171.964 22.2656 172.62 20.8984 173.48 19.7578C174.339 18.6172 175.378 17.7344 176.597 17.1094C177.831 16.4844 179.23 16.1719 180.792 16.1719C182.308 16.1719 183.628 16.4766 184.753 17.0859C185.894 17.6953 186.863 18.5625 187.659 19.6875C188.472 20.8125 189.12 22.1484 189.605 23.6953C190.089 25.2266 190.441 26.9141 190.659 28.7578V30.0938C190.441 31.8906 190.089 33.5391 189.605 35.0391C189.12 36.5391 188.472 37.8516 187.659 38.9766C186.863 40.0859 185.894 40.9453 184.753 41.5547C183.613 42.1641 182.277 42.4688 180.745 42.4688C179.198 42.4688 177.808 42.1484 176.573 41.5078C175.355 40.8672 174.316 39.9688 173.456 38.8125C172.613 37.6562 171.964 36.2969 171.511 34.7344C171.073 33.1719 170.855 31.4688 170.855 29.625ZM177.066 29.1328V29.625C177.066 30.7188 177.159 31.7422 177.347 32.6953C177.534 33.6484 177.839 34.4922 178.261 35.2266C178.683 35.9453 179.222 36.5078 179.878 36.9141C180.55 37.3203 181.363 37.5234 182.316 37.5234C183.534 37.5234 184.534 37.2578 185.316 36.7266C186.113 36.1797 186.73 35.4375 187.167 34.5C187.605 33.5469 187.886 32.4766 188.011 31.2891V27.6094C187.948 26.6719 187.784 25.8047 187.519 25.0078C187.269 24.2109 186.909 23.5234 186.441 22.9453C185.988 22.3672 185.425 21.9141 184.753 21.5859C184.081 21.2578 183.284 21.0938 182.363 21.0938C181.409 21.0938 180.597 21.3047 179.925 21.7266C179.253 22.1328 178.706 22.7031 178.284 23.4375C177.863 24.1719 177.55 25.0234 177.347 25.9922C177.159 26.9609 177.066 28.0078 177.066 29.1328ZM212.705 16.6406H218.33V41.2266C218.33 43.5234 217.83 45.4688 216.83 47.0625C215.845 48.6719 214.462 49.8906 212.681 50.7188C210.9 51.5625 208.83 51.9844 206.47 51.9844C205.455 51.9844 204.353 51.8438 203.166 51.5625C201.994 51.2812 200.861 50.8359 199.767 50.2266C198.689 49.6328 197.791 48.8594 197.072 47.9062L199.861 44.25C200.705 45.2344 201.658 45.9766 202.72 46.4766C203.783 46.9922 204.931 47.25 206.166 47.25C207.416 47.25 208.478 47.0156 209.353 46.5469C210.244 46.0938 210.923 45.4219 211.392 44.5312C211.877 43.6562 212.119 42.5781 212.119 41.2969V22.4297L212.705 16.6406ZM195.572 29.625V29.1328C195.572 27.1953 195.806 25.4375 196.275 23.8594C196.744 22.2656 197.416 20.8984 198.291 19.7578C199.181 18.6172 200.252 17.7344 201.502 17.1094C202.767 16.4844 204.189 16.1719 205.767 16.1719C207.439 16.1719 208.845 16.4766 209.986 17.0859C211.142 17.6953 212.095 18.5625 212.845 19.6875C213.611 20.8125 214.205 22.1484 214.627 23.6953C215.064 25.2266 215.4 26.9141 215.634 28.7578V30.0938C215.416 31.8906 215.064 33.5391 214.58 35.0391C214.111 36.5391 213.486 37.8516 212.705 38.9766C211.923 40.0859 210.955 40.9453 209.798 41.5547C208.642 42.1641 207.283 42.4688 205.72 42.4688C204.158 42.4688 202.752 42.1484 201.502 41.5078C200.252 40.8672 199.181 39.9688 198.291 38.8125C197.416 37.6562 196.744 36.2969 196.275 34.7344C195.806 33.1719 195.572 31.4688 195.572 29.625ZM201.759 29.1328V29.625C201.759 30.7188 201.869 31.7422 202.087 32.6953C202.306 33.6484 202.642 34.4922 203.095 35.2266C203.548 35.9453 204.119 36.5078 204.806 36.9141C205.494 37.3203 206.314 37.5234 207.267 37.5234C208.548 37.5234 209.595 37.2578 210.408 36.7266C211.236 36.1797 211.861 35.4375 212.283 34.5C212.72 33.5469 213.002 32.4766 213.127 31.2891V27.6094C213.048 26.6719 212.877 25.8047 212.611 25.0078C212.361 24.2109 212.009 23.5234 211.556 22.9453C211.103 22.3672 210.525 21.9141 209.822 21.5859C209.119 21.2578 208.283 21.0938 207.314 21.0938C206.377 21.0938 205.556 21.3047 204.853 21.7266C204.15 22.1328 203.572 22.7031 203.119 23.4375C202.666 24.1719 202.322 25.0234 202.087 25.9922C201.869 26.9609 201.759 28.0078 201.759 29.1328ZM232.898 42.4688C230.977 42.4688 229.25 42.1562 227.719 41.5312C226.188 40.9062 224.883 40.0391 223.805 38.9297C222.742 37.8047 221.922 36.5 221.344 35.0156C220.781 33.5156 220.5 31.9062 220.5 30.1875V29.25C220.5 27.2969 220.781 25.5234 221.344 23.9297C221.906 22.3203 222.703 20.9375 223.734 19.7812C224.766 18.625 226 17.7344 227.438 17.1094C228.875 16.4844 230.461 16.1719 232.195 16.1719C233.992 16.1719 235.578 16.4766 236.953 17.0859C238.328 17.6797 239.477 18.5234 240.398 19.6172C241.32 20.7109 242.016 22.0234 242.484 23.5547C242.953 25.0703 243.188 26.75 243.188 28.5938V31.1953H223.312V26.9297H237.094V26.4609C237.062 25.4766 236.875 24.5781 236.531 23.7656C236.188 22.9375 235.656 22.2812 234.938 21.7969C234.219 21.2969 233.289 21.0469 232.148 21.0469C231.227 21.0469 230.422 21.25 229.734 21.6562C229.062 22.0469 228.5 22.6094 228.047 23.3438C227.609 24.0625 227.281 24.9219 227.062 25.9219C226.844 26.9219 226.734 28.0312 226.734 29.25V30.1875C226.734 31.25 226.875 32.2344 227.156 33.1406C227.453 34.0469 227.883 34.8359 228.445 35.5078C229.023 36.1641 229.711 36.6797 230.508 37.0547C231.32 37.4141 232.242 37.5938 233.273 37.5938C234.57 37.5938 235.742 37.3438 236.789 36.8438C237.852 36.3281 238.773 35.5703 239.555 34.5703L242.672 37.8047C242.141 38.5859 241.422 39.3359 240.516 40.0547C239.625 40.7734 238.547 41.3594 237.281 41.8125C236.016 42.25 234.555 42.4688 232.898 42.4688Z" fill="white"/>
<path d="M147 16H168.376L166.753 21.7778H147V16Z" fill="white"/>
<path d="M147 26.2424V31.4949H166.212C165.812 29.444 165.905 28.2935 166.212 26.2424H147Z" fill="white"/>
<path d="M147 36.4848V42H170C168.401 39.8904 167.875 38.679 167.294 36.4848H147Z" fill="white"/>
</svg>
