<svg width="133" height="34" viewBox="0 0 133 34" fill="none" xmlns="http://www.w3.org/2000/svg">
<path d="M37.5036 12.0469H41.1198C41.8763 12.0469 42.5257 12.1608 43.068 12.3887C43.6104 12.6165 44.0274 12.9538 44.319 13.4004C44.6107 13.847 44.7565 14.3962 44.7565 15.0479C44.7565 15.5628 44.6654 16.0094 44.4831 16.3877C44.3008 16.766 44.0433 17.0827 43.7106 17.3379C43.3825 17.5931 42.9951 17.7936 42.5485 17.9395L41.9606 18.2402H38.7682L38.7546 16.7568H41.1403C41.5277 16.7568 41.849 16.6885 42.1042 16.5518C42.3594 16.415 42.5508 16.2259 42.6784 15.9844C42.8106 15.7428 42.8766 15.4671 42.8766 15.1572C42.8766 14.8245 42.8128 14.5374 42.6852 14.2959C42.5576 14.0498 42.3639 13.8607 42.1042 13.7285C41.8444 13.5964 41.5163 13.5303 41.1198 13.5303H39.3835V22H37.5036V12.0469ZM43.1227 22L40.819 17.543L42.8083 17.5361L45.1393 21.9043V22H43.1227ZM47.206 18.377V18.2334C47.206 17.6911 47.2835 17.1921 47.4384 16.7363C47.5933 16.276 47.8189 15.8773 48.1152 15.54C48.4114 15.2028 48.7737 14.9408 49.2021 14.7539C49.6305 14.5625 50.1181 14.4668 50.665 14.4668C51.221 14.4668 51.7131 14.5625 52.1415 14.7539C52.5745 14.9408 52.939 15.2028 53.2353 15.54C53.5315 15.8773 53.7571 16.276 53.912 16.7363C54.067 17.1921 54.1445 17.6911 54.1445 18.2334V18.377C54.1445 18.9147 54.067 19.4137 53.912 19.874C53.7571 20.3298 53.5315 20.7285 53.2353 21.0703C52.939 21.4076 52.5767 21.6696 52.1484 21.8564C51.72 22.0433 51.2301 22.1367 50.6786 22.1367C50.1318 22.1367 49.6418 22.0433 49.2089 21.8564C48.776 21.6696 48.4114 21.4076 48.1152 21.0703C47.8189 20.7285 47.5933 20.3298 47.4384 19.874C47.2835 19.4137 47.206 18.9147 47.206 18.377ZM49.0107 18.2334V18.377C49.0107 18.7005 49.0426 19.0036 49.1064 19.2861C49.1702 19.5687 49.2682 19.8171 49.4003 20.0312C49.5325 20.2454 49.7034 20.4141 49.913 20.5371C50.1272 20.6556 50.3824 20.7148 50.6786 20.7148C50.9703 20.7148 51.221 20.6556 51.4306 20.5371C51.6402 20.4141 51.8111 20.2454 51.9433 20.0312C52.08 19.8171 52.1803 19.5687 52.2441 19.2861C52.3079 19.0036 52.3398 18.7005 52.3398 18.377V18.2334C52.3398 17.9144 52.3079 17.6159 52.2441 17.3379C52.1803 17.0553 52.08 16.807 51.9433 16.5928C51.8111 16.374 51.6379 16.2031 51.4237 16.0801C51.2141 15.9525 50.9612 15.8887 50.665 15.8887C50.3733 15.8887 50.1226 15.9525 49.913 16.0801C49.7034 16.2031 49.5325 16.374 49.4003 16.5928C49.2682 16.807 49.1702 17.0553 49.1064 17.3379C49.0426 17.6159 49.0107 17.9144 49.0107 18.2334ZM58.631 11.5V22H56.8195V11.5H58.631ZM63.5277 11.5V22H61.7162V11.5H63.5277ZM70.9127 20.2432V14.6035H72.7311V22H71.0221L70.9127 20.2432ZM71.1452 18.7119L71.7057 18.6982C71.7057 19.195 71.651 19.653 71.5416 20.0723C71.4323 20.4915 71.2614 20.8561 71.0289 21.166C70.8011 21.4714 70.5117 21.7106 70.1608 21.8838C69.8099 22.0524 69.3952 22.1367 68.9166 22.1367C68.5521 22.1367 68.2194 22.0866 67.9186 21.9863C67.6178 21.8815 67.358 21.7197 67.1393 21.501C66.9251 21.2777 66.7588 20.9928 66.6403 20.6465C66.5218 20.2956 66.4625 19.874 66.4625 19.3818V14.6035H68.2672V19.3955C68.2672 19.6416 68.2946 19.8467 68.3493 20.0107C68.4085 20.1748 68.4883 20.3092 68.5885 20.4141C68.6933 20.5143 68.8141 20.5872 68.9508 20.6328C69.0921 20.6738 69.2425 20.6943 69.402 20.6943C69.8395 20.6943 70.1836 20.6077 70.4342 20.4346C70.6894 20.2568 70.8717 20.0199 70.9811 19.7236C71.0905 19.4229 71.1452 19.0856 71.1452 18.7119ZM77.3954 16.0254V24.8438H75.5839V14.6035H77.2587L77.3954 16.0254ZM82.1464 18.2266V18.3701C82.1464 18.9079 82.0826 19.4069 81.955 19.8672C81.8319 20.3229 81.6496 20.7217 81.4081 21.0635C81.1665 21.4007 80.8658 21.665 80.5057 21.8564C80.1503 22.0433 79.7401 22.1367 79.2753 22.1367C78.8195 22.1367 78.4231 22.0501 78.0858 21.877C77.7486 21.6992 77.4637 21.4486 77.2313 21.125C76.9989 20.8014 76.8121 20.4255 76.6708 19.9971C76.5341 19.5641 76.4315 19.0924 76.3632 18.582V18.124C76.4315 17.5817 76.5341 17.0895 76.6708 16.6475C76.8121 16.2008 76.9989 15.8158 77.2313 15.4922C77.4637 15.1641 77.7463 14.9111 78.079 14.7334C78.4162 14.5557 78.8104 14.4668 79.2616 14.4668C79.731 14.4668 80.1434 14.5557 80.4989 14.7334C80.8589 14.9111 81.162 15.1663 81.4081 15.499C81.6542 15.8317 81.8387 16.2282 81.9618 16.6885C82.0848 17.1488 82.1464 17.6615 82.1464 18.2266ZM80.3348 18.3701V18.2266C80.3348 17.8984 80.3052 17.5954 80.246 17.3174C80.1867 17.0348 80.0956 16.7887 79.9725 16.5791C79.8495 16.3649 79.69 16.1986 79.494 16.0801C79.2981 15.9616 79.0611 15.9023 78.7831 15.9023C78.5051 15.9023 78.2658 15.9479 78.0653 16.0391C77.8648 16.1302 77.7007 16.2601 77.5731 16.4287C77.4455 16.5973 77.3453 16.7979 77.2723 17.0303C77.204 17.2581 77.1584 17.5111 77.1356 17.7891V18.9238C77.1766 19.2611 77.2564 19.5641 77.3749 19.833C77.4934 20.1019 77.6665 20.3161 77.8944 20.4756C78.1268 20.6351 78.4276 20.7148 78.7968 20.7148C79.0748 20.7148 79.3117 20.6533 79.5077 20.5303C79.7037 20.4072 79.8632 20.2386 79.9862 20.0244C80.1093 19.8057 80.1981 19.555 80.2528 19.2725C80.3075 18.9899 80.3348 18.6891 80.3348 18.3701ZM93.5394 12.0469V22H91.6664V12.0469H93.5394ZM96.6293 12.0469V13.5303H88.6107V12.0469H96.6293ZM97.6158 18.377V18.2334C97.6158 17.6911 97.6933 17.1921 97.8482 16.7363C98.0032 16.276 98.2288 15.8773 98.525 15.54C98.8212 15.2028 99.1835 14.9408 99.6119 14.7539C100.04 14.5625 100.528 14.4668 101.075 14.4668C101.631 14.4668 102.123 14.5625 102.551 14.7539C102.984 14.9408 103.349 15.2028 103.645 15.54C103.941 15.8773 104.167 16.276 104.322 16.7363C104.477 17.1921 104.554 17.6911 104.554 18.2334V18.377C104.554 18.9147 104.477 19.4137 104.322 19.874C104.167 20.3298 103.941 20.7285 103.645 21.0703C103.349 21.4076 102.987 21.6696 102.558 21.8564C102.13 22.0433 101.64 22.1367 101.088 22.1367C100.542 22.1367 100.052 22.0433 99.6188 21.8564C99.1858 21.6696 98.8212 21.4076 98.525 21.0703C98.2288 20.7285 98.0032 20.3298 97.8482 19.874C97.6933 19.4137 97.6158 18.9147 97.6158 18.377ZM99.4205 18.2334V18.377C99.4205 18.7005 99.4524 19.0036 99.5162 19.2861C99.58 19.5687 99.678 19.8171 99.8102 20.0312C99.9423 20.2454 100.113 20.4141 100.323 20.5371C100.537 20.6556 100.792 20.7148 101.088 20.7148C101.38 20.7148 101.631 20.6556 101.84 20.5371C102.05 20.4141 102.221 20.2454 102.353 20.0312C102.49 19.8171 102.59 19.5687 102.654 19.2861C102.718 19.0036 102.75 18.7005 102.75 18.377V18.2334C102.75 17.9144 102.718 17.6159 102.654 17.3379C102.59 17.0553 102.49 16.807 102.353 16.5928C102.221 16.374 102.048 16.2031 101.834 16.0801C101.624 15.9525 101.371 15.8887 101.075 15.8887C100.783 15.8887 100.532 15.9525 100.323 16.0801C100.113 16.2031 99.9423 16.374 99.8102 16.5928C99.678 16.807 99.58 17.0553 99.5162 17.3379C99.4524 17.6159 99.4205 17.9144 99.4205 18.2334ZM108.931 11.4932V22H107.127V11.4932H108.931ZM113.566 14.6035L110.347 18.2197L108.603 19.9902L108.029 18.5889L109.376 16.8936L111.386 14.6035H113.566ZM111.721 22L109.431 18.5547L110.634 17.3857L113.812 22H111.721ZM118.969 22.1367C118.408 22.1367 117.905 22.0456 117.458 21.8633C117.011 21.681 116.631 21.4281 116.316 21.1045C116.007 20.7764 115.767 20.3958 115.599 19.9629C115.435 19.5254 115.353 19.056 115.353 18.5547V18.2812C115.353 17.7116 115.435 17.1943 115.599 16.7295C115.763 16.2601 115.995 15.8568 116.296 15.5195C116.597 15.1823 116.957 14.9225 117.376 14.7402C117.795 14.5579 118.258 14.4668 118.764 14.4668C119.288 14.4668 119.75 14.5557 120.151 14.7334C120.552 14.9066 120.887 15.1527 121.156 15.4717C121.425 15.7907 121.628 16.1735 121.765 16.6201C121.901 17.0622 121.97 17.5521 121.97 18.0898V18.8486H116.173V17.6045H120.192V17.4678C120.183 17.1807 120.129 16.9186 120.028 16.6816C119.928 16.4401 119.773 16.2487 119.564 16.1074C119.354 15.9616 119.083 15.8887 118.75 15.8887C118.481 15.8887 118.246 15.9479 118.046 16.0664C117.85 16.1803 117.686 16.3444 117.554 16.5586C117.426 16.7682 117.33 17.0189 117.267 17.3105C117.203 17.6022 117.171 17.9258 117.171 18.2812V18.5547C117.171 18.8646 117.212 19.1517 117.294 19.416C117.381 19.6803 117.506 19.9105 117.67 20.1064C117.839 20.2979 118.039 20.4482 118.272 20.5576C118.509 20.6624 118.777 20.7148 119.078 20.7148C119.456 20.7148 119.798 20.6419 120.104 20.4961C120.413 20.3457 120.682 20.1247 120.91 19.833L121.819 20.7764C121.664 21.0042 121.455 21.223 121.191 21.4326C120.931 21.6423 120.616 21.8132 120.247 21.9453C119.878 22.0729 119.452 22.1367 118.969 22.1367ZM126.21 16.1826V22H124.406V14.6035H126.101L126.21 16.1826ZM125.923 18.0352H125.39C125.395 17.4974 125.467 17.0098 125.609 16.5723C125.75 16.1348 125.948 15.7588 126.203 15.4443C126.463 15.1299 126.771 14.8883 127.126 14.7197C127.482 14.5511 127.878 14.4668 128.316 14.4668C128.671 14.4668 128.993 14.5169 129.28 14.6172C129.567 14.7174 129.813 14.877 130.018 15.0957C130.228 15.3145 130.387 15.6016 130.496 15.957C130.61 16.3079 130.667 16.7409 130.667 17.2559V22H128.849V17.2422C128.849 16.9049 128.799 16.6383 128.699 16.4424C128.603 16.2464 128.462 16.1074 128.275 16.0254C128.092 15.9434 127.867 15.9023 127.598 15.9023C127.32 15.9023 127.076 15.9593 126.867 16.0732C126.661 16.1826 126.488 16.3353 126.347 16.5312C126.21 16.7272 126.105 16.9528 126.033 17.208C125.96 17.4632 125.923 17.7389 125.923 18.0352Z" fill="white"/>
<path d="M30.5 17C30.5 25.5755 23.7694 32.5 15.5 32.5C7.23057 32.5 0.5 25.5755 0.5 17C0.5 8.4245 7.23057 1.5 15.5 1.5C23.7694 1.5 30.5 8.4245 30.5 17Z" stroke="white"/>
<path d="M10.5605 9.78125H16.1562C17.25 9.78125 18.2005 9.94401 19.0078 10.2695C19.8151 10.5951 20.4368 11.0768 20.873 11.7148C21.3158 12.3529 21.5371 13.1406 21.5371 14.0781C21.5371 14.8919 21.4102 15.5723 21.1562 16.1191C20.9023 16.666 20.5475 17.1185 20.0918 17.4766C19.6426 17.8281 19.1185 18.1178 18.5195 18.3457L17.3965 18.9805H12.6992L12.6797 16.334H16.1562C16.5924 16.334 16.9538 16.2559 17.2402 16.0996C17.5267 15.9434 17.7415 15.722 17.8848 15.4355C18.0345 15.1426 18.1094 14.7943 18.1094 14.3906C18.1094 13.9805 18.0345 13.6289 17.8848 13.3359C17.735 13.043 17.5137 12.8184 17.2207 12.6621C16.9342 12.5059 16.5794 12.4277 16.1562 12.4277H13.9883V24H10.5605V9.78125ZM18.3438 24L15.1992 17.7109L18.832 17.6914L22.0156 23.8535V24H18.3438Z" fill="white"/>
</svg>
