<svg width="187" height="74" viewBox="0 0 187 74" fill="none" xmlns="http://www.w3.org/2000/svg">
<g filter="url(#filter0_d_138_37578)">
<path d="M105.544 34.7466C105.544 34.7466 116.445 40.2503 135.999 38.5388C155.554 36.8274 159.304 25.5273 159.304 25.5273" stroke="url(#paint0_radial_138_37578)" stroke-width="1.30437" stroke-linecap="round"/>
<path d="M105.544 34.7466C105.544 34.7466 116.445 40.2503 135.999 38.5388C155.554 36.8274 159.304 25.5273 159.304 25.5273" stroke="url(#paint1_linear_138_37578)" stroke-width="0.391312" stroke-linecap="round" stroke-dasharray="0.07 1.3"/>
<path d="M33.7998 32.5461C33.7998 32.5461 40.5571 43.8482 58.3457 47.6118C76.1342 51.3754 83.0947 41.158 83.0947 41.158" stroke="url(#paint2_radial_138_37578)" stroke-width="1.30437" stroke-linecap="round"/>
<path d="M33.7998 32.5461C33.7998 32.5461 40.5571 43.8482 58.3457 47.6118C76.1342 51.3754 83.0947 41.158 83.0947 41.158" stroke="url(#paint3_linear_138_37578)" stroke-width="0.391312" stroke-linecap="round" stroke-dasharray="0.07 1.3"/>
<path d="M165.471 24.3591C166.821 24.3591 167.916 23.1728 167.916 21.7096C167.916 20.2463 166.821 19.0601 165.471 19.0601C164.12 19.0601 163.025 20.2463 163.025 21.7096C163.025 23.1728 164.12 24.3591 165.471 24.3591Z" fill="url(#paint4_linear_138_37578)" fill-opacity="0.37" stroke="url(#paint5_linear_138_37578)" stroke-width="0.782624" stroke-linecap="round"/>
<path d="M162.447 27.0476C163.284 26.5124 164.333 26.1936 165.471 26.1936C166.608 26.1936 167.658 26.5124 168.494 27.0476C170.314 28.2126 168.659 30.2698 166.498 30.2698H164.444C162.282 30.2698 160.627 28.2126 162.447 27.0476Z" fill="url(#paint6_linear_138_37578)" fill-opacity="0.37" stroke="url(#paint7_linear_138_37578)" stroke-width="0.782624" stroke-linecap="round"/>
<g opacity="0.68">
<path d="M163.758 48.7584C164.704 48.7584 165.47 47.928 165.47 46.9037C165.47 45.8794 164.704 45.0491 163.758 45.0491C162.813 45.0491 162.047 45.8794 162.047 46.9037C162.047 47.928 162.813 48.7584 163.758 48.7584Z" fill="url(#paint8_linear_138_37578)" fill-opacity="0.37" stroke="url(#paint9_linear_138_37578)" stroke-width="0.782624" stroke-linecap="round"/>
<path d="M162.283 50.3152C162.73 50.1402 163.231 50.0422 163.759 50.0422C164.286 50.0422 164.787 50.1402 165.234 50.3152C167.013 51.0104 165.668 52.8956 163.759 52.8956C161.849 52.8956 160.504 51.0104 162.283 50.3152Z" fill="url(#paint10_linear_138_37578)" fill-opacity="0.37" stroke="url(#paint11_linear_138_37578)" stroke-width="0.782624" stroke-linecap="round"/>
</g>
<g filter="url(#filter1_b_138_37578)">
<path d="M137.951 43.4584C140.113 43.4584 141.865 41.5604 141.865 39.2192C141.865 36.8779 140.113 34.98 137.951 34.98C135.79 34.98 134.038 36.8779 134.038 39.2192C134.038 41.5604 135.79 43.4584 137.951 43.4584Z" fill="url(#paint12_linear_138_37578)" fill-opacity="0.37"/>
<path d="M137.951 43.4584C140.113 43.4584 141.865 41.5604 141.865 39.2192C141.865 36.8779 140.113 34.98 137.951 34.98C135.79 34.98 134.038 36.8779 134.038 39.2192C134.038 41.5604 135.79 43.4584 137.951 43.4584Z" stroke="url(#paint13_linear_138_37578)" stroke-width="1.30437" stroke-linecap="round"/>
</g>
<path d="M131.366 49.3109C132.783 47.5526 135.207 46.3931 137.951 46.3931C140.696 46.3931 143.12 47.5526 144.537 49.3109C145.894 50.9932 144.104 52.9149 141.943 52.9149H133.96C131.799 52.9149 130.009 50.9932 131.366 49.3109Z" fill="url(#paint14_linear_138_37578)" fill-opacity="0.37" stroke="url(#paint15_linear_138_37578)" stroke-width="1.30437" stroke-linecap="round"/>
<path d="M25.6581 30.3341C27.8193 30.3341 29.5712 28.4362 29.5712 26.0949C29.5712 23.7537 27.8193 21.8557 25.6581 21.8557C23.497 21.8557 21.745 23.7537 21.745 26.0949C21.745 28.4362 23.497 30.3341 25.6581 30.3341Z" fill="url(#paint16_linear_138_37578)" fill-opacity="0.37" stroke="url(#paint17_linear_138_37578)" stroke-width="1.30437" stroke-linecap="round"/>
<path d="M19.0722 36.1866C20.49 34.4284 22.9136 33.2688 25.6582 33.2688C28.4027 33.2688 30.8263 34.4284 32.2441 36.1866C33.6007 37.869 31.8107 39.7907 29.6495 39.7907H21.6668C19.5056 39.7907 17.7156 37.869 19.0722 36.1866Z" fill="url(#paint18_linear_138_37578)" fill-opacity="0.37" stroke="url(#paint19_linear_138_37578)" stroke-width="1.30437" stroke-linecap="round"/>
<g opacity="0.4">
<path d="M57.3479 33.2675C58.6986 33.2675 59.7936 32.0813 59.7936 30.618C59.7936 29.1547 58.6986 27.9685 57.3479 27.9685C55.9972 27.9685 54.9022 29.1547 54.9022 30.618C54.9022 32.0813 55.9972 33.2675 57.3479 33.2675Z" fill="url(#paint20_linear_138_37578)" fill-opacity="0.37" stroke="url(#paint21_linear_138_37578)" stroke-width="0.782624" stroke-linecap="round"/>
<path d="M54.3246 35.9553C55.1609 35.4201 56.2103 35.1013 57.3479 35.1013C58.4855 35.1013 59.5349 35.4201 60.3712 35.9553C62.1915 37.1203 60.5363 39.1775 58.3751 39.1775H56.3207C54.1596 39.1775 52.5044 37.1203 54.3246 35.9553Z" fill="url(#paint22_linear_138_37578)" fill-opacity="0.37" stroke="url(#paint23_linear_138_37578)" stroke-width="0.782624" stroke-linecap="round"/>
</g>
<g opacity="0.69">
<path d="M43.9192 53.8932C45.5401 53.8932 46.8541 52.4698 46.8541 50.7138C46.8541 48.9579 45.5401 47.5344 43.9192 47.5344C42.2983 47.5344 40.9844 48.9579 40.9844 50.7138C40.9844 52.4698 42.2983 53.8932 43.9192 53.8932Z" fill="url(#paint24_linear_138_37578)" fill-opacity="0.37" stroke="url(#paint25_linear_138_37578)" stroke-width="0.782624" stroke-linecap="round"/>
<path d="M39.6623 57.5836C40.7409 56.6652 42.251 56.094 43.9192 56.094C45.5874 56.094 47.0975 56.6652 48.1761 57.5836C49.8215 58.9848 48.0956 60.9854 45.9345 60.9854H41.904C39.7428 60.9854 38.0169 58.9848 39.6623 57.5836Z" fill="url(#paint26_linear_138_37578)" fill-opacity="0.37" stroke="url(#paint27_linear_138_37578)" stroke-width="0.782624" stroke-linecap="round"/>
</g>
<path d="M51.3789 55.1685C51.3789 55.1685 58.8594 61.4428 70.9853 57.9012C83.1112 54.3597 84.4525 43.9514 84.4525 43.9514" stroke="url(#paint28_radial_138_37578)" stroke-width="0.913061" stroke-linecap="round"/>
<path d="M51.3789 55.1685C51.3789 55.1685 58.8594 61.4428 70.9853 57.9012C83.1112 54.3597 84.4525 43.9514 84.4525 43.9514" stroke="url(#paint29_linear_138_37578)" stroke-width="0.391312" stroke-linecap="round" stroke-dasharray="0.07 1.3"/>
<path d="M104.547 43.645C104.547 43.645 112.164 56.4693 132.008 59.3205C151.851 62.1718 159.522 49.3846 159.522 49.3846" stroke="url(#paint30_radial_138_37578)" stroke-width="1.30437" stroke-linecap="round"/>
<path d="M104.547 43.645C104.547 43.645 112.164 56.4693 132.008 59.3205C151.851 62.1718 159.522 49.3846 159.522 49.3846" stroke="url(#paint31_linear_138_37578)" stroke-width="0.391312" stroke-linecap="round" stroke-dasharray="0.07 1.3"/>
<path opacity="0.68" d="M63.8863 34.9988C63.8863 34.9988 66.0155 39.9427 72.8685 41.2181C79.7215 42.4936 82.9642 37.7124 82.9642 37.7124" stroke="url(#paint32_radial_138_37578)" stroke-opacity="0.62" stroke-width="0.913061" stroke-linecap="round"/>
<path d="M63.8863 34.9988C63.8863 34.9988 66.0155 39.9427 72.8685 41.2181C79.7215 42.4936 82.9642 37.7124 82.9642 37.7124" stroke="url(#paint33_linear_138_37578)" stroke-width="0.391312" stroke-linecap="round" stroke-dasharray="0.07 1.3"/>
<path d="M105.607 38.4272C105.607 38.4272 108.798 45.3345 118.626 47.3061C128.455 49.2778 132.944 42.7572 132.944 42.7572" stroke="url(#paint34_radial_138_37578)" stroke-width="1.30437" stroke-linecap="round"/>
<path d="M105.607 38.4272C105.607 38.4272 108.798 45.3345 118.626 47.3061C128.455 49.2778 132.944 42.7572 132.944 42.7572" stroke="url(#paint35_linear_138_37578)" stroke-width="0.391312" stroke-linecap="round" stroke-dasharray="0.07 1.3"/>
<g filter="url(#filter2_ii_138_37578)">
<path d="M92.2856 25.6544L85.7768 26.6435C84.2768 27.2044 83.0507 28.9784 83.0507 30.5697V40.2612C83.0507 41.8004 84.0681 43.8221 85.3072 44.7482L90.916 48.9353C92.7552 50.3179 95.7813 50.3179 97.6205 48.9353L103.229 44.7482C104.468 43.8221 105.486 41.8004 105.486 40.2612V30.5697C105.486 28.9653 104.26 27.1914 102.76 26.6305L96.2509 25.6544C95.0897 25.5363 93.455 25.503 92.2856 25.6544Z" fill="url(#paint36_linear_138_37578)" fill-opacity="0.37"/>
</g>
<path d="M92.2856 25.6544L85.7768 26.6435C84.2768 27.2044 83.0507 28.9784 83.0507 30.5697V40.2612C83.0507 41.8004 84.0681 43.8221 85.3072 44.7482L90.916 48.9353C92.7552 50.3179 95.7813 50.3179 97.6205 48.9353L103.229 44.7482C104.468 43.8221 105.486 41.8004 105.486 40.2612V30.5697C105.486 28.9653 104.26 27.1914 102.76 26.6305L96.2509 25.6544C95.0897 25.5363 93.455 25.503 92.2856 25.6544Z" stroke="url(#paint37_linear_138_37578)" stroke-width="1.30437" stroke-linecap="round"/>
<path d="M90.4138 37.6399C91.9493 38.5573 92.4664 39.9269 92.4664 39.9269C92.4664 39.9269 94.2472 37.4372 95.2025 36.4391C96.1578 35.4411 98.1227 34.1311 98.1227 34.1311" stroke="#46FFE9" stroke-width="1.95656" stroke-linecap="round" stroke-linejoin="round"/>
</g>
<defs>
<filter id="filter0_d_138_37578" x="0.87504" y="-1.49958" width="185.465" height="80.871" filterUnits="userSpaceOnUse" color-interpolation-filters="sRGB">
<feFlood flood-opacity="0" result="BackgroundImageFix"/>
<feColorMatrix in="SourceAlpha" type="matrix" values="0 0 0 0 0 0 0 0 0 0 0 0 0 0 0 0 0 0 127 0" result="hardAlpha"/>
<feOffset dy="-2.60875"/>
<feGaussianBlur stdDeviation="7.17405"/>
<feComposite in2="hardAlpha" operator="out"/>
<feColorMatrix type="matrix" values="0 0 0 0 0 0 0 0 0 0.577403 0 0 0 0 1 0 0 0 0.11 0"/>
<feBlend mode="normal" in2="BackgroundImageFix" result="effect1_dropShadow_138_37578"/>
<feBlend mode="normal" in="SourceGraphic" in2="effect1_dropShadow_138_37578" result="shape"/>
</filter>
<filter id="filter1_b_138_37578" x="128.169" y="29.1104" width="19.5656" height="20.2177" filterUnits="userSpaceOnUse" color-interpolation-filters="sRGB">
<feFlood flood-opacity="0" result="BackgroundImageFix"/>
<feGaussianBlur in="BackgroundImageFix" stdDeviation="2.60875"/>
<feComposite in2="SourceAlpha" operator="in" result="effect1_backgroundBlur_138_37578"/>
<feBlend mode="normal" in="SourceGraphic" in2="effect1_backgroundBlur_138_37578" result="shape"/>
</filter>
<filter id="filter2_ii_138_37578" x="82.3984" y="24.9009" width="27.6527" height="28.3324" filterUnits="userSpaceOnUse" color-interpolation-filters="sRGB">
<feFlood flood-opacity="0" result="BackgroundImageFix"/>
<feBlend mode="normal" in="SourceGraphic" in2="BackgroundImageFix" result="shape"/>
<feColorMatrix in="SourceAlpha" type="matrix" values="0 0 0 0 0 0 0 0 0 0 0 0 0 0 0 0 0 0 127 0" result="hardAlpha"/>
<feOffset/>
<feGaussianBlur stdDeviation="3.26093"/>
<feComposite in2="hardAlpha" operator="arithmetic" k2="-1" k3="1"/>
<feColorMatrix type="matrix" values="0 0 0 0 0.0301 0 0 0 0 0.534448 0 0 0 0 1 0 0 0 0.54 0"/>
<feBlend mode="normal" in2="shape" result="effect1_innerShadow_138_37578"/>
<feColorMatrix in="SourceAlpha" type="matrix" values="0 0 0 0 0 0 0 0 0 0 0 0 0 0 0 0 0 0 127 0" result="hardAlpha"/>
<feOffset dx="3.91312" dy="2.60875"/>
<feGaussianBlur stdDeviation="2.60875"/>
<feComposite in2="hardAlpha" operator="arithmetic" k2="-1" k3="1"/>
<feColorMatrix type="matrix" values="0 0 0 0 0.812507 0 0 0 0 0.925004 0 0 0 0 1 0 0 0 0.28 0"/>
<feBlend mode="normal" in2="effect1_innerShadow_138_37578" result="effect2_innerShadow_138_37578"/>
</filter>
<radialGradient id="paint0_radial_138_37578" cx="0" cy="0" r="1" gradientUnits="userSpaceOnUse" gradientTransform="translate(131.189 6.12456) rotate(83.7348) scale(48.365 27.5983)">
<stop offset="0.367723" stop-color="#0095FF"/>
<stop offset="0.531103" stop-color="white"/>
<stop offset="0.676103" stop-color="#0099FF" stop-opacity="0.41"/>
</radialGradient>
<linearGradient id="paint1_linear_138_37578" x1="107.467" y1="29.9916" x2="159.907" y2="26.3496" gradientUnits="userSpaceOnUse">
<stop stop-color="#46FFE9" stop-opacity="0"/>
<stop offset="1" stop-color="#46FFE9"/>
</linearGradient>
<radialGradient id="paint2_radial_138_37578" cx="0" cy="0" r="1" gradientUnits="userSpaceOnUse" gradientTransform="translate(60.2251 33.0655) rotate(97.4778) scale(25.3984 28.6321)">
<stop offset="0.256103" stop-color="#0095FF"/>
<stop offset="0.531103" stop-color="white"/>
<stop offset="0.676103" stop-color="#0099FF" stop-opacity="0.41"/>
</radialGradient>
<linearGradient id="paint3_linear_138_37578" x1="35.2199" y1="31.9175" x2="83.6059" y2="41.2" gradientUnits="userSpaceOnUse">
<stop stop-color="#46FFE9"/>
<stop offset="1" stop-color="#46FFE9" stop-opacity="0"/>
</linearGradient>
<linearGradient id="paint4_linear_138_37578" x1="164.59" y1="18.9541" x2="178.824" y2="18.9541" gradientUnits="userSpaceOnUse">
<stop offset="0.0629444" stop-color="#7D8B94"/>
<stop offset="0.0630444" stop-color="#2F3335"/>
</linearGradient>
<linearGradient id="paint5_linear_138_37578" x1="164.187" y1="20.1861" x2="165.63" y2="22.47" gradientUnits="userSpaceOnUse">
<stop stop-color="white"/>
<stop offset="1" stop-color="#4DB6FC"/>
</linearGradient>
<linearGradient id="paint6_linear_138_37578" x1="163.692" y1="26.1121" x2="192.445" y2="26.1121" gradientUnits="userSpaceOnUse">
<stop offset="0.0629444" stop-color="#7D8B94"/>
<stop offset="0.0630444" stop-color="#2F3335"/>
</linearGradient>
<linearGradient id="paint7_linear_138_37578" x1="160.987" y1="28.4355" x2="170.566" y2="28.4355" gradientUnits="userSpaceOnUse">
<stop offset="0.788329" stop-color="#4DB5FC"/>
<stop offset="0.940674" stop-color="white"/>
</linearGradient>
<linearGradient id="paint8_linear_138_37578" x1="163.142" y1="44.9749" x2="173.106" y2="44.9749" gradientUnits="userSpaceOnUse">
<stop offset="0.0629444" stop-color="#7D8B94"/>
<stop offset="0.0630444" stop-color="#2F3335"/>
</linearGradient>
<linearGradient id="paint9_linear_138_37578" x1="162.86" y1="45.8373" x2="163.87" y2="47.436" gradientUnits="userSpaceOnUse">
<stop stop-color="white"/>
<stop offset="1" stop-color="#4DB6FC"/>
</linearGradient>
<linearGradient id="paint10_linear_138_37578" x1="162.514" y1="49.9852" x2="182.64" y2="49.9852" gradientUnits="userSpaceOnUse">
<stop offset="0.0629444" stop-color="#7D8B94"/>
<stop offset="0.0630444" stop-color="#2F3335"/>
</linearGradient>
<linearGradient id="paint11_linear_138_37578" x1="160.62" y1="51.6116" x2="167.325" y2="51.6116" gradientUnits="userSpaceOnUse">
<stop offset="0.788329" stop-color="#4DB5FC"/>
<stop offset="0.940674" stop-color="white"/>
</linearGradient>
<linearGradient id="paint12_linear_138_37578" x1="136.543" y1="34.8104" x2="159.317" y2="34.8104" gradientUnits="userSpaceOnUse">
<stop offset="0.0629444" stop-color="#7D8B94"/>
<stop offset="0.0630444" stop-color="#2F3335"/>
</linearGradient>
<linearGradient id="paint13_linear_138_37578" x1="135.897" y1="36.7817" x2="138.206" y2="40.4359" gradientUnits="userSpaceOnUse">
<stop stop-color="white"/>
<stop offset="1" stop-color="#4DB6FC"/>
</linearGradient>
<linearGradient id="paint14_linear_138_37578" x1="135.106" y1="46.2626" x2="181.11" y2="46.2626" gradientUnits="userSpaceOnUse">
<stop offset="0.0629444" stop-color="#7D8B94"/>
<stop offset="0.0630444" stop-color="#2F3335"/>
</linearGradient>
<linearGradient id="paint15_linear_138_37578" x1="130.777" y1="49.9801" x2="146.104" y2="49.9801" gradientUnits="userSpaceOnUse">
<stop offset="0.788329" stop-color="#4DB5FC"/>
<stop offset="0.940674" stop-color="white"/>
</linearGradient>
<linearGradient id="paint16_linear_138_37578" x1="24.2494" y1="21.6861" x2="47.0237" y2="21.6861" gradientUnits="userSpaceOnUse">
<stop offset="0.0629444" stop-color="#7D8B94"/>
<stop offset="0.0630444" stop-color="#2F3335"/>
</linearGradient>
<linearGradient id="paint17_linear_138_37578" x1="23.6037" y1="23.6574" x2="25.913" y2="27.3116" gradientUnits="userSpaceOnUse">
<stop stop-color="white"/>
<stop offset="1" stop-color="#4DB6FC"/>
</linearGradient>
<linearGradient id="paint18_linear_138_37578" x1="22.8125" y1="33.1383" x2="68.8167" y2="33.1383" gradientUnits="userSpaceOnUse">
<stop offset="0.0629444" stop-color="#7D8B94"/>
<stop offset="0.0630444" stop-color="#2F3335"/>
</linearGradient>
<linearGradient id="paint19_linear_138_37578" x1="18.484" y1="36.8558" x2="33.8104" y2="36.8558" gradientUnits="userSpaceOnUse">
<stop offset="0.788329" stop-color="#4DB5FC"/>
<stop offset="0.940674" stop-color="white"/>
</linearGradient>
<linearGradient id="paint20_linear_138_37578" x1="56.4675" y1="27.8625" x2="70.7014" y2="27.8625" gradientUnits="userSpaceOnUse">
<stop offset="0.0629444" stop-color="#7D8B94"/>
<stop offset="0.0630444" stop-color="#2F3335"/>
</linearGradient>
<linearGradient id="paint21_linear_138_37578" x1="56.0639" y1="29.0946" x2="57.5072" y2="31.3785" gradientUnits="userSpaceOnUse">
<stop stop-color="white"/>
<stop offset="1" stop-color="#4DB6FC"/>
</linearGradient>
<linearGradient id="paint22_linear_138_37578" x1="55.5694" y1="35.0198" x2="84.322" y2="35.0198" gradientUnits="userSpaceOnUse">
<stop offset="0.0629444" stop-color="#7D8B94"/>
<stop offset="0.0630444" stop-color="#2F3335"/>
</linearGradient>
<linearGradient id="paint23_linear_138_37578" x1="52.8641" y1="37.3432" x2="62.4431" y2="37.3432" gradientUnits="userSpaceOnUse">
<stop offset="0.788329" stop-color="#4DB5FC"/>
<stop offset="0.940674" stop-color="white"/>
</linearGradient>
<linearGradient id="paint24_linear_138_37578" x1="42.8627" y1="47.4072" x2="59.9434" y2="47.4072" gradientUnits="userSpaceOnUse">
<stop offset="0.0629444" stop-color="#7D8B94"/>
<stop offset="0.0630444" stop-color="#2F3335"/>
</linearGradient>
<linearGradient id="paint25_linear_138_37578" x1="42.3784" y1="48.8857" x2="44.1104" y2="51.6264" gradientUnits="userSpaceOnUse">
<stop stop-color="white"/>
<stop offset="1" stop-color="#4DB6FC"/>
</linearGradient>
<linearGradient id="paint26_linear_138_37578" x1="41.785" y1="55.9962" x2="76.2881" y2="55.9962" gradientUnits="userSpaceOnUse">
<stop offset="0.0629444" stop-color="#7D8B94"/>
<stop offset="0.0630444" stop-color="#2F3335"/>
</linearGradient>
<linearGradient id="paint27_linear_138_37578" x1="38.5386" y1="58.7843" x2="50.0334" y2="58.7843" gradientUnits="userSpaceOnUse">
<stop offset="0.788329" stop-color="#4DB5FC"/>
<stop offset="0.940674" stop-color="white"/>
</linearGradient>
<radialGradient id="paint28_radial_138_37578" cx="0" cy="0" r="1" gradientUnits="userSpaceOnUse" gradientTransform="translate(67.9157 45.9931) rotate(75.6413) scale(21.2993 19.9421)">
<stop offset="0.256103" stop-color="#0095FF"/>
<stop offset="0.531103" stop-color="white"/>
<stop offset="0.676103" stop-color="#0099FF" stop-opacity="0.41"/>
</radialGradient>
<linearGradient id="paint29_linear_138_37578" x1="52.0765" y1="54.1687" x2="85.5039" y2="47.3275" gradientUnits="userSpaceOnUse">
<stop stop-color="#46FFE9"/>
<stop offset="1" stop-color="#46FFE9" stop-opacity="0"/>
</linearGradient>
<radialGradient id="paint30_radial_138_37578" cx="0" cy="0" r="1" gradientUnits="userSpaceOnUse" gradientTransform="translate(133.984 41.849) rotate(96.5616) scale(30.4507 31.653)">
<stop offset="0.256103" stop-color="#0095FF"/>
<stop offset="0.531103" stop-color="white"/>
<stop offset="0.676103" stop-color="#0099FF" stop-opacity="0.41"/>
</radialGradient>
<linearGradient id="paint31_linear_138_37578" x1="106.123" y1="42.7676" x2="159.665" y2="51.8919" gradientUnits="userSpaceOnUse">
<stop stop-color="#46FFE9" stop-opacity="0"/>
<stop offset="1" stop-color="#46FFE9"/>
</linearGradient>
<radialGradient id="paint32_radial_138_37578" cx="0" cy="0" r="1" gradientUnits="userSpaceOnUse" gradientTransform="translate(74.3101 34.6028) rotate(102.39) scale(11.7267 11.0046)">
<stop offset="0.256103" stop-color="#0095FF"/>
<stop offset="0.531103" stop-color="white"/>
<stop offset="0.676103" stop-color="#0099FF" stop-opacity="0.41"/>
</radialGradient>
<linearGradient id="paint33_linear_138_37578" x1="64.478" y1="34.681" x2="82.6498" y2="39.6144" gradientUnits="userSpaceOnUse">
<stop stop-color="#46FFE9"/>
<stop offset="1" stop-color="#46FFE9" stop-opacity="0"/>
</linearGradient>
<radialGradient id="paint34_radial_138_37578" cx="0" cy="0" r="1" gradientUnits="userSpaceOnUse" gradientTransform="translate(120.487 38.1926) rotate(101.639) scale(16.1095 15.8335)">
<stop offset="0.256103" stop-color="#0095FF"/>
<stop offset="0.531103" stop-color="white"/>
<stop offset="0.676103" stop-color="#0099FF" stop-opacity="0.41"/>
</radialGradient>
<linearGradient id="paint35_linear_138_37578" x1="106.443" y1="38.0051" x2="132.695" y2="44.8304" gradientUnits="userSpaceOnUse">
<stop stop-color="#46FFE9" stop-opacity="0"/>
<stop offset="1" stop-color="#46FFE9"/>
</linearGradient>
<linearGradient id="paint36_linear_138_37578" x1="90.2299" y1="25.0645" x2="155.516" y2="25.0645" gradientUnits="userSpaceOnUse">
<stop offset="0.0629444" stop-color="#7D8B94"/>
<stop offset="0.0630444" stop-color="#2F3335"/>
</linearGradient>
<linearGradient id="paint37_linear_138_37578" x1="85.569" y1="27.0755" x2="97.8035" y2="49.9723" gradientUnits="userSpaceOnUse">
<stop stop-color="white"/>
<stop offset="0.184662" stop-color="#58BCFF"/>
<stop offset="1" stop-color="#007DD0"/>
</linearGradient>
</defs>
</svg>
