<svg width="186" height="66" viewBox="0 0 186 66" fill="none" xmlns="http://www.w3.org/2000/svg">
<g filter="url(#filter0_d_138_37638)">
<g filter="url(#filter1_ii_138_37638)">
<path d="M40.4906 37.3447C40.2133 36.0113 38.8299 35.4482 37.0677 35.2996C37.3029 33.8161 37.039 32.2965 36.3174 30.9792C35.6103 29.6853 34.4778 28.6756 33.1117 28.1208C34.0878 28.76 34.8734 29.6507 35.3855 30.699C35.907 31.7636 36.1401 32.9463 36.0615 34.1291C36.0413 34.4321 35.9136 34.7179 35.7014 34.9351C35.4941 35.148 35.2148 35.276 34.9182 35.2938H34.5037C33.5142 35.2911 32.5588 34.9319 31.8126 34.282C31.7034 34.1884 31.6157 34.0724 31.5554 33.9418C31.4926 33.8104 31.458 33.6673 31.4539 33.5217C31.421 32.5355 31.4039 31.1278 31.8283 29.9987C31.9948 29.557 32.1915 29.1272 32.4171 28.7125C32.8773 27.855 33.4261 27.209 34.0021 27.0146C37.6822 25.7569 37.758 33.989 37.758 33.989C37.758 33.989 38.8141 26.9589 34.8996 25.6255C33.6491 25.1967 32.47 26.1657 31.461 27.6749C30.354 26.7077 28.9369 26.1694 27.467 26.1576C25.997 26.1458 24.5715 26.6613 23.4491 27.6106C24.4592 27.0517 25.6065 26.7893 26.7592 26.8535C27.9118 26.9177 29.0229 27.306 29.9647 27.9736C30.2137 28.1535 30.3902 28.4166 30.462 28.7153C30.5352 29.0173 30.5004 29.3354 30.3634 29.6143L30.2562 29.8358C29.8086 30.781 29.0825 31.5665 28.1753 32.0868C28.0765 32.1438 27.9644 32.1739 27.8502 32.1739C27.7361 32.1739 27.6239 32.1438 27.5251 32.0868C26.6233 31.5665 25.1812 30.6733 24.4409 29.6943C24.1506 29.3175 23.8865 28.9212 23.6506 28.5081C23.1761 27.6649 22.9103 26.8445 23.0389 26.2214C23.8578 22.2926 30.735 26.3729 30.735 26.3729C30.735 26.3729 25.4113 21.881 22.3272 24.7251C21.3424 25.634 21.5525 27.1733 22.3 28.844C20.9087 29.372 19.7458 30.37 19.0129 31.6652C18.2649 32.9811 17.9791 34.5097 18.2011 36.007C18.245 34.8172 18.6036 33.6603 19.2401 32.6542C19.868 31.6625 20.7565 30.8625 21.8084 30.3417C22.0751 30.2113 22.3812 30.1858 22.6659 30.2703C22.9543 30.3581 23.2008 30.5481 23.359 30.8048C23.3876 30.8534 23.4176 30.9006 23.4491 30.9477C24.0677 31.9275 24.462 33.0319 24.6038 34.1819C24.6242 34.3381 24.5979 34.4967 24.5281 34.6379C24.46 34.7777 24.3508 34.8934 24.2151 34.9694C23.2147 35.5182 21.4997 36.2228 20.3292 36.4258C19.8776 36.5084 19.4203 36.5561 18.9614 36.5687C18.0582 36.5887 17.275 36.4386 16.8262 36.0399C13.9365 33.4445 20.4092 29.2041 20.6179 29.0784C20.4406 29.1541 14.298 31.841 15.2156 35.9484C15.51 37.2632 16.8763 37.8063 18.6199 37.9335C18.4218 39.3945 18.7042 40.8803 19.4245 42.1668C20.1308 43.4309 21.2447 44.4183 22.5844 44.9679C21.6094 44.3262 20.8254 43.4336 20.3149 42.384C19.7952 41.3189 19.5636 40.1364 19.6432 38.954C19.6667 38.6819 19.7845 38.4267 19.9762 38.2322C20.1666 38.0415 20.4215 37.9288 20.6907 37.9164L21.1452 37.8792C22.0825 37.7907 23.0276 37.9183 23.9078 38.2522H23.9407C24.0792 38.3065 24.1979 38.4017 24.2808 38.5252C24.3667 38.6519 24.4134 38.801 24.4152 38.954C24.4395 40.1173 24.378 42.051 23.9578 43.1986C23.7979 43.645 23.6069 44.0795 23.3862 44.4992C22.9446 45.3295 22.42 45.9769 21.8584 46.1642C18.2168 47.4847 17.9996 39.2627 17.9996 39.2627C17.9996 39.2627 17.0506 46.3099 20.9866 47.5776C22.2443 47.9792 23.3805 47.0174 24.3652 45.511C25.4733 46.4342 26.8708 46.9381 28.3131 46.9347C29.7553 46.9313 31.1504 46.4208 32.2542 45.4925C31.2657 46.0381 30.1456 46.3001 29.0176 46.2497C27.8896 46.1993 26.7974 45.8383 25.8615 45.2066C25.6087 45.0313 25.4279 44.7704 25.3527 44.472C25.2741 44.1713 25.304 43.8525 25.437 43.5716L25.58 43.2658C25.787 42.8136 26.0585 42.3938 26.386 42.0196C26.7085 41.6404 27.0823 41.308 27.4965 41.032C27.602 40.9632 27.7242 40.9244 27.85 40.9196C27.9759 40.9148 28.1007 40.9443 28.2111 41.0048C29.16 41.5165 30.655 42.4054 31.4139 43.3787C31.7073 43.7499 31.9747 44.141 32.2142 44.5492C32.6887 45.371 32.9517 46.1699 32.8359 46.7659C32.0741 50.7075 25.1355 46.7387 25.1355 46.7387C25.1355 46.7387 30.5178 51.1463 33.5591 48.2565C34.5252 47.3375 34.2965 45.8169 33.5405 44.169C34.897 43.6216 36.0242 42.6245 36.7333 41.345C37.458 40.0437 37.7342 38.54 37.5193 37.066C37.4779 38.2351 37.1331 39.3733 36.5189 40.3689C35.9166 41.3496 35.0617 42.1503 34.0435 42.687C33.7734 42.8252 33.4608 42.8559 33.1689 42.7727C32.8724 42.6883 32.6177 42.4968 32.4543 42.2354L32.43 42.2011C31.7708 41.17 31.378 39.9914 31.2867 38.771C31.2744 38.6336 31.3022 38.4957 31.3667 38.3737C31.4289 38.2532 31.5254 38.1537 31.644 38.0879C32.7981 37.4837 34.0339 37.0504 35.3127 36.8016C35.7682 36.726 36.2287 36.683 36.6904 36.673C37.6208 36.673 38.4254 36.8259 38.8756 37.2447C41.6896 39.8415 35.3441 43.8961 34.9882 44.1247C35.347 43.9832 41.3338 41.4036 40.4906 37.3447ZM28.7141 37.0303L27.8481 37.5505L26.9906 37.0303V35.9941L27.8566 35.4739L28.7227 35.9941L28.7141 37.0303Z" fill="url(#paint0_linear_138_37638)" fill-opacity="0.37"/>
</g>
<path d="M50.5245 28.5403H140.935" stroke="url(#paint1_linear_138_37638)" stroke-width="1.31986" stroke-linecap="round" stroke-dasharray="1.32 3.96"/>
<path d="M50.5244 23.2607H140.935" stroke="url(#paint2_linear_138_37638)" stroke-width="1.31986" stroke-linecap="round" stroke-dasharray="1.32 3.96"/>
<path d="M50.5245 35.1394H140.935" stroke="url(#paint3_linear_138_37638)" stroke-width="1.31986" stroke-linecap="round" stroke-dasharray="1.32 3.96"/>
<path d="M50.5245 41.7383H140.935" stroke="url(#paint4_linear_138_37638)" stroke-width="1.31986" stroke-linecap="round" stroke-dasharray="1.32 3.96"/>
<path d="M50.5245 47.0186H140.935" stroke="url(#paint5_linear_138_37638)" stroke-width="1.31986" stroke-linecap="round" stroke-dasharray="1.32 3.96"/>
<path d="M170.835 42.5004C169.803 45.6029 166.052 47.7633 160.025 46.8501C153.633 45.8813 150.506 42.0834 150.996 38.8507C151.36 35.6699 156.32 34.3128 161.799 35.1432C167.279 35.9737 172.379 37.8586 170.835 42.5004Z" fill="#EEF8FF"/>
<g filter="url(#filter2_ii_138_37638)">
<ellipse cx="161.062" cy="39.617" rx="9.84934" ry="4.98783" transform="rotate(8.61732 161.062 39.617)" fill="#00192B"/>
</g>
<ellipse cx="161.062" cy="39.617" rx="9.84934" ry="4.98783" transform="rotate(8.61732 161.062 39.617)" stroke="url(#paint6_linear_138_37638)" stroke-width="0.551064" stroke-linecap="round"/>
<path d="M169.022 37.264C167.99 40.3665 164.239 42.527 158.213 41.6138C151.82 40.645 148.694 36.8471 149.184 33.6143C149.547 30.4336 154.507 29.0765 159.987 29.9069C165.467 30.7374 170.566 32.6223 169.022 37.264Z" fill="#EEF8FF"/>
<g filter="url(#filter3_ii_138_37638)">
<ellipse cx="159.249" cy="34.3807" rx="9.84934" ry="4.98783" transform="rotate(8.61732 159.249 34.3807)" fill="#00192B"/>
</g>
<ellipse cx="159.249" cy="34.3807" rx="9.84934" ry="4.98783" transform="rotate(8.61732 159.249 34.3807)" stroke="url(#paint7_linear_138_37638)" stroke-width="0.551064" stroke-linecap="round"/>
<path d="M170.679 33.5748C169.23 35.9279 165.727 36.981 160.946 35.0661C155.874 33.0347 154.035 29.3065 155.062 26.7415C155.976 24.1949 160.318 24.0361 164.666 25.7775C169.014 27.5189 172.845 30.0543 170.679 33.5748Z" fill="#EEF8FF"/>
<g filter="url(#filter4_ii_138_37638)">
<ellipse cx="163.195" cy="29.3169" rx="8.32321" ry="4.21497" transform="rotate(21.8261 163.195 29.3169)" fill="#00192B"/>
</g>
<ellipse cx="163.195" cy="29.3169" rx="8.32321" ry="4.21497" transform="rotate(21.8261 163.195 29.3169)" stroke="url(#paint8_linear_138_37638)" stroke-width="0.465678" stroke-linecap="round"/>
<g filter="url(#filter5_bii_138_37638)">
<path d="M98.4147 22.3723V21.6594C98.4147 20.1196 98.044 18.0779 94.8332 18.0779C91.6224 18.0779 91.2517 20.1196 91.2517 21.6594V22.3723C89.6548 22.5719 89.1301 23.3817 89.1301 25.3721V26.4329C89.1301 28.7711 89.843 29.484 92.1813 29.484H97.4851C99.8234 29.484 100.536 28.7711 100.536 26.4329V25.3721C100.536 23.3817 100.012 22.5719 98.4147 22.3723ZM92.1813 22.321C92.1356 22.321 92.0957 22.321 92.0501 22.321V21.6594C92.0501 19.9884 92.5234 18.8763 94.8332 18.8763C97.1429 18.8763 97.6163 19.9884 97.6163 21.6594V22.3267C97.5707 22.3267 97.5307 22.3267 97.4851 22.3267H92.1813V22.321Z" fill="url(#paint9_linear_138_37638)"/>
</g>
<g filter="url(#filter6_bii_138_37638)">
<path d="M98.4147 34.6264V33.9136C98.4147 32.3737 98.044 30.332 94.8332 30.332C91.6224 30.332 91.2517 32.3737 91.2517 33.9136V34.6264C89.6548 34.826 89.1301 35.6359 89.1301 37.6262V38.687C89.1301 41.0253 89.843 41.7382 92.1813 41.7382H97.4851C99.8234 41.7382 100.536 41.0253 100.536 38.687V37.6262C100.536 35.6359 100.012 34.826 98.4147 34.6264ZM92.1813 34.5751C92.1356 34.5751 92.0957 34.5751 92.0501 34.5751V33.9136C92.0501 32.2426 92.5234 31.1305 94.8332 31.1305C97.1429 31.1305 97.6163 32.2426 97.6163 33.9136V34.5808C97.5707 34.5808 97.5307 34.5808 97.4851 34.5808H92.1813V34.5751Z" fill="url(#paint10_linear_138_37638)"/>
</g>
<g filter="url(#filter7_bii_138_37638)">
<path d="M98.4147 46.8813V46.1684C98.4147 44.6286 98.044 42.5869 94.8332 42.5869C91.6224 42.5869 91.2517 44.6286 91.2517 46.1684V46.8813C89.6548 47.0809 89.1301 47.8908 89.1301 49.8811V50.9419C89.1301 53.2802 89.843 53.993 92.1813 53.993H97.4851C99.8234 53.993 100.536 53.2802 100.536 50.9419V49.8811C100.536 47.8908 100.012 47.0809 98.4147 46.8813ZM92.1813 46.83C92.1356 46.83 92.0957 46.83 92.0501 46.83V46.1684C92.0501 44.4974 92.5234 43.3853 94.8332 43.3853C97.1429 43.3853 97.6163 44.4974 97.6163 46.1684V46.8357C97.5707 46.8357 97.5307 46.8357 97.4851 46.8357H92.1813V46.83Z" fill="url(#paint11_linear_138_37638)"/>
</g>
</g>
<defs>
<filter id="filter0_d_138_37638" x="-6.13574" y="-8.6894" width="201.938" height="81.8311" filterUnits="userSpaceOnUse" color-interpolation-filters="sRGB">
<feFlood flood-opacity="0" result="BackgroundImageFix"/>
<feColorMatrix in="SourceAlpha" type="matrix" values="0 0 0 0 0 0 0 0 0 0 0 0 0 0 0 0 0 0 127 0" result="hardAlpha"/>
<feOffset dy="-2.63971"/>
<feGaussianBlur stdDeviation="7.25922"/>
<feComposite in2="hardAlpha" operator="out"/>
<feColorMatrix type="matrix" values="0 0 0 0 0 0 0 0 0 0.577403 0 0 0 0 1 0 0 0 0.11 0"/>
<feBlend mode="normal" in2="BackgroundImageFix" result="effect1_dropShadow_138_37638"/>
<feBlend mode="normal" in="SourceGraphic" in2="effect1_dropShadow_138_37638" result="shape"/>
</filter>
<filter id="filter1_ii_138_37638" x="15.1222" y="23.7815" width="28.7561" height="27.6613" filterUnits="userSpaceOnUse" color-interpolation-filters="sRGB">
<feFlood flood-opacity="0" result="BackgroundImageFix"/>
<feBlend mode="normal" in="SourceGraphic" in2="BackgroundImageFix" result="shape"/>
<feColorMatrix in="SourceAlpha" type="matrix" values="0 0 0 0 0 0 0 0 0 0 0 0 0 0 0 0 0 0 127 0" result="hardAlpha"/>
<feOffset/>
<feGaussianBlur stdDeviation="2.75532"/>
<feComposite in2="hardAlpha" operator="arithmetic" k2="-1" k3="1"/>
<feColorMatrix type="matrix" values="0 0 0 0 0.0301 0 0 0 0 0.534448 0 0 0 0 1 0 0 0 0.54 0"/>
<feBlend mode="normal" in2="shape" result="effect1_innerShadow_138_37638"/>
<feColorMatrix in="SourceAlpha" type="matrix" values="0 0 0 0 0 0 0 0 0 0 0 0 0 0 0 0 0 0 127 0" result="hardAlpha"/>
<feOffset dx="3.30638" dy="2.20425"/>
<feGaussianBlur stdDeviation="2.20425"/>
<feComposite in2="hardAlpha" operator="arithmetic" k2="-1" k3="1"/>
<feColorMatrix type="matrix" values="0 0 0 0 0.812507 0 0 0 0 0.925004 0 0 0 0 1 0 0 0 0.28 0"/>
<feBlend mode="normal" in2="effect1_innerShadow_138_37638" result="effect2_innerShadow_138_37638"/>
</filter>
<filter id="filter2_ii_138_37638" x="151.019" y="34.1926" width="23.3924" height="11.951" filterUnits="userSpaceOnUse" color-interpolation-filters="sRGB">
<feFlood flood-opacity="0" result="BackgroundImageFix"/>
<feBlend mode="normal" in="SourceGraphic" in2="BackgroundImageFix" result="shape"/>
<feColorMatrix in="SourceAlpha" type="matrix" values="0 0 0 0 0 0 0 0 0 0 0 0 0 0 0 0 0 0 127 0" result="hardAlpha"/>
<feOffset/>
<feGaussianBlur stdDeviation="2.20425"/>
<feComposite in2="hardAlpha" operator="arithmetic" k2="-1" k3="1"/>
<feColorMatrix type="matrix" values="0 0 0 0 0.201396 0 0 0 0 0.472921 0 0 0 0 1 0 0 0 1 0"/>
<feBlend mode="normal" in2="shape" result="effect1_innerShadow_138_37638"/>
<feColorMatrix in="SourceAlpha" type="matrix" values="0 0 0 0 0 0 0 0 0 0 0 0 0 0 0 0 0 0 127 0" result="hardAlpha"/>
<feOffset dx="3.30638" dy="1.10213"/>
<feGaussianBlur stdDeviation="2.59"/>
<feComposite in2="hardAlpha" operator="arithmetic" k2="-1" k3="1"/>
<feColorMatrix type="matrix" values="0 0 0 0 1 0 0 0 0 1 0 0 0 0 1 0 0 0 0.23 0"/>
<feBlend mode="normal" in2="effect1_innerShadow_138_37638" result="effect2_innerShadow_138_37638"/>
</filter>
<filter id="filter3_ii_138_37638" x="149.206" y="28.9563" width="23.3924" height="11.951" filterUnits="userSpaceOnUse" color-interpolation-filters="sRGB">
<feFlood flood-opacity="0" result="BackgroundImageFix"/>
<feBlend mode="normal" in="SourceGraphic" in2="BackgroundImageFix" result="shape"/>
<feColorMatrix in="SourceAlpha" type="matrix" values="0 0 0 0 0 0 0 0 0 0 0 0 0 0 0 0 0 0 127 0" result="hardAlpha"/>
<feOffset/>
<feGaussianBlur stdDeviation="2.20425"/>
<feComposite in2="hardAlpha" operator="arithmetic" k2="-1" k3="1"/>
<feColorMatrix type="matrix" values="0 0 0 0 0.201396 0 0 0 0 0.472921 0 0 0 0 1 0 0 0 1 0"/>
<feBlend mode="normal" in2="shape" result="effect1_innerShadow_138_37638"/>
<feColorMatrix in="SourceAlpha" type="matrix" values="0 0 0 0 0 0 0 0 0 0 0 0 0 0 0 0 0 0 127 0" result="hardAlpha"/>
<feOffset dx="3.30638" dy="1.10213"/>
<feGaussianBlur stdDeviation="2.59"/>
<feComposite in2="hardAlpha" operator="arithmetic" k2="-1" k3="1"/>
<feColorMatrix type="matrix" values="0 0 0 0 1 0 0 0 0 1 0 0 0 0 1 0 0 0 0.23 0"/>
<feBlend mode="normal" in2="effect1_innerShadow_138_37638" result="effect2_innerShadow_138_37638"/>
</filter>
<filter id="filter4_ii_138_37638" x="155.076" y="24.0952" width="19.0317" height="11.3747" filterUnits="userSpaceOnUse" color-interpolation-filters="sRGB">
<feFlood flood-opacity="0" result="BackgroundImageFix"/>
<feBlend mode="normal" in="SourceGraphic" in2="BackgroundImageFix" result="shape"/>
<feColorMatrix in="SourceAlpha" type="matrix" values="0 0 0 0 0 0 0 0 0 0 0 0 0 0 0 0 0 0 127 0" result="hardAlpha"/>
<feOffset/>
<feGaussianBlur stdDeviation="1.86271"/>
<feComposite in2="hardAlpha" operator="arithmetic" k2="-1" k3="1"/>
<feColorMatrix type="matrix" values="0 0 0 0 0.201396 0 0 0 0 0.472921 0 0 0 0 1 0 0 0 1 0"/>
<feBlend mode="normal" in2="shape" result="effect1_innerShadow_138_37638"/>
<feColorMatrix in="SourceAlpha" type="matrix" values="0 0 0 0 0 0 0 0 0 0 0 0 0 0 0 0 0 0 127 0" result="hardAlpha"/>
<feOffset dx="2.79407" dy="0.931355"/>
<feGaussianBlur stdDeviation="2.18868"/>
<feComposite in2="hardAlpha" operator="arithmetic" k2="-1" k3="1"/>
<feColorMatrix type="matrix" values="0 0 0 0 1 0 0 0 0 1 0 0 0 0 1 0 0 0 0.23 0"/>
<feBlend mode="normal" in2="effect1_innerShadow_138_37638" result="effect2_innerShadow_138_37638"/>
</filter>
<filter id="filter5_bii_138_37638" x="87.0834" y="16.0312" width="15.4996" height="15.4995" filterUnits="userSpaceOnUse" color-interpolation-filters="sRGB">
<feFlood flood-opacity="0" result="BackgroundImageFix"/>
<feGaussianBlur in="BackgroundImageFix" stdDeviation="1.02337"/>
<feComposite in2="SourceAlpha" operator="in" result="effect1_backgroundBlur_138_37638"/>
<feBlend mode="normal" in="SourceGraphic" in2="effect1_backgroundBlur_138_37638" result="shape"/>
<feColorMatrix in="SourceAlpha" type="matrix" values="0 0 0 0 0 0 0 0 0 0 0 0 0 0 0 0 0 0 127 0" result="hardAlpha"/>
<feOffset/>
<feGaussianBlur stdDeviation="1.02337"/>
<feComposite in2="hardAlpha" operator="arithmetic" k2="-1" k3="1"/>
<feColorMatrix type="matrix" values="0 0 0 0 0.0301 0 0 0 0 0.534448 0 0 0 0 1 0 0 0 0.54 0"/>
<feBlend mode="normal" in2="shape" result="effect2_innerShadow_138_37638"/>
<feColorMatrix in="SourceAlpha" type="matrix" values="0 0 0 0 0 0 0 0 0 0 0 0 0 0 0 0 0 0 127 0" result="hardAlpha"/>
<feOffset dx="1.22804" dy="0.818692"/>
<feGaussianBlur stdDeviation="0.818692"/>
<feComposite in2="hardAlpha" operator="arithmetic" k2="-1" k3="1"/>
<feColorMatrix type="matrix" values="0 0 0 0 0.812507 0 0 0 0 0.925004 0 0 0 0 1 0 0 0 0.28 0"/>
<feBlend mode="normal" in2="effect2_innerShadow_138_37638" result="effect3_innerShadow_138_37638"/>
</filter>
<filter id="filter6_bii_138_37638" x="87.0834" y="28.2853" width="15.4996" height="15.4995" filterUnits="userSpaceOnUse" color-interpolation-filters="sRGB">
<feFlood flood-opacity="0" result="BackgroundImageFix"/>
<feGaussianBlur in="BackgroundImageFix" stdDeviation="1.02337"/>
<feComposite in2="SourceAlpha" operator="in" result="effect1_backgroundBlur_138_37638"/>
<feBlend mode="normal" in="SourceGraphic" in2="effect1_backgroundBlur_138_37638" result="shape"/>
<feColorMatrix in="SourceAlpha" type="matrix" values="0 0 0 0 0 0 0 0 0 0 0 0 0 0 0 0 0 0 127 0" result="hardAlpha"/>
<feOffset/>
<feGaussianBlur stdDeviation="1.02337"/>
<feComposite in2="hardAlpha" operator="arithmetic" k2="-1" k3="1"/>
<feColorMatrix type="matrix" values="0 0 0 0 0.0301 0 0 0 0 0.534448 0 0 0 0 1 0 0 0 0.54 0"/>
<feBlend mode="normal" in2="shape" result="effect2_innerShadow_138_37638"/>
<feColorMatrix in="SourceAlpha" type="matrix" values="0 0 0 0 0 0 0 0 0 0 0 0 0 0 0 0 0 0 127 0" result="hardAlpha"/>
<feOffset dx="1.22804" dy="0.818692"/>
<feGaussianBlur stdDeviation="0.818692"/>
<feComposite in2="hardAlpha" operator="arithmetic" k2="-1" k3="1"/>
<feColorMatrix type="matrix" values="0 0 0 0 0.812507 0 0 0 0 0.925004 0 0 0 0 1 0 0 0 0.28 0"/>
<feBlend mode="normal" in2="effect2_innerShadow_138_37638" result="effect3_innerShadow_138_37638"/>
</filter>
<filter id="filter7_bii_138_37638" x="87.0834" y="40.5402" width="15.4996" height="15.4995" filterUnits="userSpaceOnUse" color-interpolation-filters="sRGB">
<feFlood flood-opacity="0" result="BackgroundImageFix"/>
<feGaussianBlur in="BackgroundImageFix" stdDeviation="1.02337"/>
<feComposite in2="SourceAlpha" operator="in" result="effect1_backgroundBlur_138_37638"/>
<feBlend mode="normal" in="SourceGraphic" in2="effect1_backgroundBlur_138_37638" result="shape"/>
<feColorMatrix in="SourceAlpha" type="matrix" values="0 0 0 0 0 0 0 0 0 0 0 0 0 0 0 0 0 0 127 0" result="hardAlpha"/>
<feOffset/>
<feGaussianBlur stdDeviation="1.02337"/>
<feComposite in2="hardAlpha" operator="arithmetic" k2="-1" k3="1"/>
<feColorMatrix type="matrix" values="0 0 0 0 0.0301 0 0 0 0 0.534448 0 0 0 0 1 0 0 0 0.54 0"/>
<feBlend mode="normal" in2="shape" result="effect2_innerShadow_138_37638"/>
<feColorMatrix in="SourceAlpha" type="matrix" values="0 0 0 0 0 0 0 0 0 0 0 0 0 0 0 0 0 0 127 0" result="hardAlpha"/>
<feOffset dx="1.22804" dy="0.818692"/>
<feGaussianBlur stdDeviation="0.818692"/>
<feComposite in2="hardAlpha" operator="arithmetic" k2="-1" k3="1"/>
<feColorMatrix type="matrix" values="0 0 0 0 0.812507 0 0 0 0 0.925004 0 0 0 0 1 0 0 0 0.28 0"/>
<feBlend mode="normal" in2="effect2_innerShadow_138_37638" result="effect3_innerShadow_138_37638"/>
</filter>
<linearGradient id="paint0_linear_138_37638" x1="23.266" y1="23.2723" x2="97.3245" y2="23.2723" gradientUnits="userSpaceOnUse">
<stop offset="0.0629444" stop-color="white"/>
<stop offset="0.0630444" stop-color="#2F3335"/>
</linearGradient>
<linearGradient id="paint1_linear_138_37638" x1="50.5245" y1="28.5403" x2="140.935" y2="28.5403" gradientUnits="userSpaceOnUse">
<stop offset="0.391436" stop-color="white"/>
<stop offset="0.426103" stop-color="#4DB6FC" stop-opacity="0.41"/>
<stop offset="0.771103" stop-color="#00243E"/>
</linearGradient>
<linearGradient id="paint2_linear_138_37638" x1="50.5244" y1="23.2607" x2="140.935" y2="23.2607" gradientUnits="userSpaceOnUse">
<stop offset="0.391436" stop-color="white"/>
<stop offset="0.426103" stop-color="#4DB6FC" stop-opacity="0.41"/>
<stop offset="0.771103" stop-color="#00243E"/>
</linearGradient>
<linearGradient id="paint3_linear_138_37638" x1="50.5245" y1="35.1394" x2="140.935" y2="35.1394" gradientUnits="userSpaceOnUse">
<stop offset="0.391436" stop-color="white"/>
<stop offset="0.426103" stop-color="#4DB6FC" stop-opacity="0.41"/>
<stop offset="0.771103" stop-color="#00243E"/>
</linearGradient>
<linearGradient id="paint4_linear_138_37638" x1="50.5245" y1="41.7383" x2="140.935" y2="41.7383" gradientUnits="userSpaceOnUse">
<stop offset="0.391436" stop-color="white"/>
<stop offset="0.426103" stop-color="#4DB6FC" stop-opacity="0.41"/>
<stop offset="0.771103" stop-color="#00243E"/>
</linearGradient>
<linearGradient id="paint5_linear_138_37638" x1="50.5245" y1="47.0186" x2="140.935" y2="47.0186" gradientUnits="userSpaceOnUse">
<stop offset="0.391436" stop-color="white"/>
<stop offset="0.426103" stop-color="#4DB6FC" stop-opacity="0.41"/>
<stop offset="0.771103" stop-color="#00243E"/>
</linearGradient>
<linearGradient id="paint6_linear_138_37638" x1="152.044" y1="37.4794" x2="164.296" y2="44.8427" gradientUnits="userSpaceOnUse">
<stop offset="0.145544" stop-color="white"/>
<stop offset="0.284002" stop-color="#6DC2FF"/>
<stop offset="1" stop-color="#0095FF"/>
</linearGradient>
<linearGradient id="paint7_linear_138_37638" x1="150.232" y1="32.2431" x2="162.483" y2="39.6064" gradientUnits="userSpaceOnUse">
<stop offset="0.145544" stop-color="white"/>
<stop offset="0.284002" stop-color="#6DC2FF"/>
<stop offset="1" stop-color="#0095FF"/>
</linearGradient>
<linearGradient id="paint8_linear_138_37638" x1="155.575" y1="27.5105" x2="165.928" y2="33.7329" gradientUnits="userSpaceOnUse">
<stop offset="0.145544" stop-color="white"/>
<stop offset="0.284002" stop-color="#6DC2FF"/>
<stop offset="1" stop-color="#0095FF"/>
</linearGradient>
<linearGradient id="paint9_linear_138_37638" x1="92.7801" y1="17.8497" x2="125.972" y2="17.8497" gradientUnits="userSpaceOnUse">
<stop offset="0.0617548" stop-color="#95D5FF"/>
<stop offset="0.0629517" stop-color="#005BB0"/>
</linearGradient>
<linearGradient id="paint10_linear_138_37638" x1="92.7801" y1="30.1039" x2="125.972" y2="30.1039" gradientUnits="userSpaceOnUse">
<stop offset="0.0617548" stop-color="#95D5FF"/>
<stop offset="0.0629517" stop-color="#005BB0"/>
</linearGradient>
<linearGradient id="paint11_linear_138_37638" x1="92.7801" y1="42.3588" x2="125.972" y2="42.3588" gradientUnits="userSpaceOnUse">
<stop offset="0.0617548" stop-color="#95D5FF"/>
<stop offset="0.0629517" stop-color="#005BB0"/>
</linearGradient>
</defs>
</svg>
