<svg width="109" height="54" viewBox="0 0 109 54" fill="none" xmlns="http://www.w3.org/2000/svg">
<g filter="url(#filter0_ii_138_37665)">
<path d="M44.5499 23.874H64.4499C66.854 23.874 68.0618 22.6892 68.0618 20.3081V13.3718C68.0618 11.7959 67.6937 10.7837 66.7391 9.82894L62.92 5.88344C61.8043 4.73315 60.8611 4.23853 59.3312 4.23853H49.6687C48.1503 4.23853 47.1956 4.73315 46.0913 5.88344L42.2608 9.82894C41.3176 10.7837 40.938 11.7959 40.938 13.3718V20.3081C40.938 22.6892 42.1458 23.874 44.5499 23.874ZM44.5729 22.022C43.4226 22.022 42.79 21.4123 42.79 20.2161V14.7177C42.79 13.993 43.112 13.6594 43.8137 13.6594H65.1861C65.8878 13.6594 66.2099 13.993 66.2099 14.7177V20.2161C66.2099 21.4123 65.5773 22.022 64.4269 22.022H44.5729ZM45.6082 20.055C45.9533 20.055 46.2638 19.7905 46.2638 19.4339V16.5405C46.2638 16.1953 45.9533 15.9077 45.6082 15.9077C45.2516 15.9077 44.9755 16.1953 44.9755 16.5405V19.4339C44.9755 19.7905 45.2516 20.055 45.6082 20.055ZM48.3114 20.9062C48.6679 20.9062 48.967 20.6417 48.967 20.2851V15.4194C48.967 15.0743 48.6679 14.7867 48.3114 14.7867C47.9548 14.7867 47.6902 15.0743 47.6902 15.4194V20.2851C47.6902 20.6417 47.9548 20.9062 48.3114 20.9062ZM51.0145 20.055C51.3711 20.055 51.6702 19.7905 51.6702 19.4339V16.5405C51.6702 16.1953 51.3711 15.9077 51.0145 15.9077C50.6579 15.9077 50.3934 16.1953 50.3934 16.5405V19.4339C50.3934 19.7905 50.6579 20.055 51.0145 20.055ZM54.5114 16.4547C54.9716 16.4547 55.3511 16.075 55.3511 15.6034C55.3511 15.1548 54.9716 14.7752 54.5114 14.7752C54.0513 14.7752 53.6718 15.1548 53.6718 15.6034C53.6718 16.075 54.0513 16.4547 54.5114 16.4547ZM54.5114 18.6747C54.9716 18.6747 55.3511 18.2951 55.3511 17.835C55.3511 17.3748 54.9716 16.9952 54.5114 16.9952C54.0513 16.9952 53.6718 17.3748 53.6718 17.835C53.6718 18.2951 54.0513 18.6747 54.5114 18.6747ZM54.5114 20.8948C54.9716 20.8948 55.3511 20.5152 55.3511 20.055C55.3511 19.5949 54.9716 19.2269 54.5114 19.2269C54.0513 19.2269 53.6718 19.5949 53.6718 20.055C53.6718 20.5152 54.0513 20.8948 54.5114 20.8948ZM57.8703 20.055C58.2269 20.055 58.526 19.7905 58.526 19.4339V16.5405C58.526 16.1953 58.2269 15.9077 57.8703 15.9077C57.5137 15.9077 57.2491 16.1953 57.2491 16.5405V19.4339C57.2491 19.7905 57.5137 20.055 57.8703 20.055ZM60.5735 20.9062C60.9301 20.9062 61.2406 20.6417 61.2406 20.2851V15.4194C61.2406 15.0743 60.9301 14.7867 60.5735 14.7867C60.2283 14.7867 59.9523 15.0743 59.9523 15.4194V20.2851C59.9523 20.6417 60.2283 20.9062 60.5735 20.9062ZM63.2881 20.055C63.6332 20.055 63.9438 19.7905 63.9438 19.4339V16.5405C63.9438 16.1953 63.6332 15.9077 63.2881 15.9077C62.9315 15.9077 62.6555 16.1953 62.6555 16.5405V19.4339C62.6555 19.7905 62.9315 20.055 63.2881 20.055Z" fill="url(#paint0_linear_138_37665)" fill-opacity="0.37"/>
</g>
<path d="M54.2468 24.7134V30.5981M54.2468 36.4828V30.5981M54.2468 30.5981H15.9305C13.7426 30.5981 11.969 32.3717 11.969 34.5596V36.4828M54.2468 30.5981H93.5699C95.7578 30.5981 97.5315 32.3717 97.5315 34.5596V36.4828" stroke="#54B9FD" stroke-opacity="0.12" stroke-width="2.64102" stroke-linecap="round" stroke-linejoin="round"/>
<path d="M54.2468 24.7134V30.5981M54.2468 36.4828V30.5981M54.2468 30.5981H15.9305C13.7426 30.5981 11.969 32.3717 11.969 34.5596V36.4828M54.2468 30.5981H93.5699C95.7578 30.5981 97.5315 32.3717 97.5315 34.5596V36.4828" stroke="url(#paint1_linear_138_37665)" stroke-width="0.294475" stroke-linecap="round" stroke-dasharray="0.05 0.98"/>
<g filter="url(#filter1_ii_138_37665)">
<path d="M12.0455 45.9102L22.4951 42.1799V49.5144L12.0455 53.2447V45.9102Z" fill="url(#paint2_linear_138_37665)" fill-opacity="0.37"/>
</g>
<path d="M12.3757 52.7763V46.1429L22.165 42.6483V49.2818L12.3757 52.7763Z" stroke="#49B2F7" stroke-opacity="0.65" stroke-width="0.660256" stroke-linecap="round"/>
<g filter="url(#filter2_ii_138_37665)">
<path d="M11.1914 45.9102L0.741805 42.1799V49.5144L11.1914 53.2447V45.9102Z" fill="url(#paint3_linear_138_37665)" fill-opacity="0.37"/>
</g>
<path d="M10.8613 52.7763V46.1429L1.07193 42.6483V49.2818L10.8613 52.7763Z" stroke="#49B2F7" stroke-opacity="0.65" stroke-width="0.660256" stroke-linecap="round"/>
<g filter="url(#filter3_ii_138_37665)">
<path d="M11.6428 37.836L22.2973 41.5321L11.6428 45.4587L1.03673 41.5324L11.6428 37.836Z" fill="url(#paint4_linear_138_37665)" fill-opacity="0.37"/>
</g>
<path d="M1.8446 41.5391L11.6433 38.1241L21.4866 41.5388L11.6433 45.1665L1.8446 41.5391Z" stroke="#49B2F7" stroke-opacity="0.65" stroke-width="0.660256" stroke-linecap="round"/>
<g filter="url(#filter4_ii_138_37665)">
<path d="M54.927 45.9102L65.3766 42.1799V49.5144L54.927 53.2447V45.9102Z" fill="url(#paint5_linear_138_37665)" fill-opacity="0.37"/>
</g>
<path d="M55.2571 52.7763V46.1429L65.0465 42.6483V49.2818L55.2571 52.7763Z" stroke="#49B2F7" stroke-opacity="0.65" stroke-width="0.660256" stroke-linecap="round"/>
<g filter="url(#filter5_ii_138_37665)">
<path d="M54.0729 45.9102L43.6233 42.1799V49.5144L54.0729 53.2447V45.9102Z" fill="url(#paint6_linear_138_37665)" fill-opacity="0.37"/>
</g>
<path d="M53.7427 52.7763V46.1429L43.9534 42.6483V49.2818L53.7427 52.7763Z" stroke="#49B2F7" stroke-opacity="0.65" stroke-width="0.660256" stroke-linecap="round"/>
<g filter="url(#filter6_ii_138_37665)">
<path d="M54.5244 37.836L65.1789 41.5321L54.5244 45.4587L43.9183 41.5324L54.5244 37.836Z" fill="url(#paint7_linear_138_37665)" fill-opacity="0.37"/>
</g>
<path d="M44.7262 41.5391L54.5249 38.1241L64.3682 41.5388L54.5249 45.1665L44.7262 41.5391Z" stroke="#49B2F7" stroke-opacity="0.65" stroke-width="0.660256" stroke-linecap="round"/>
<g filter="url(#filter7_ii_138_37665)">
<path d="M97.8085 45.9102L108.258 42.1799V49.5144L97.8085 53.2447V45.9102Z" fill="url(#paint8_linear_138_37665)" fill-opacity="0.37"/>
</g>
<path d="M98.1386 52.7763V46.1429L107.928 42.6483V49.2818L98.1386 52.7763Z" stroke="#49B2F7" stroke-opacity="0.65" stroke-width="0.660256" stroke-linecap="round"/>
<g filter="url(#filter8_ii_138_37665)">
<path d="M96.9543 45.9102L86.5047 42.1799V49.5144L96.9543 53.2447V45.9102Z" fill="url(#paint9_linear_138_37665)" fill-opacity="0.37"/>
</g>
<path d="M96.6242 52.7763V46.1429L86.8349 42.6483V49.2818L96.6242 52.7763Z" stroke="#49B2F7" stroke-opacity="0.65" stroke-width="0.660256" stroke-linecap="round"/>
<g filter="url(#filter9_ii_138_37665)">
<path d="M97.4059 37.836L108.06 41.5321L97.4059 45.4587L86.7998 41.5324L97.4059 37.836Z" fill="url(#paint10_linear_138_37665)" fill-opacity="0.37"/>
</g>
<path d="M87.6077 41.5391L97.4063 38.1241L107.25 41.5388L97.4063 45.1665L87.6077 41.5391Z" stroke="#49B2F7" stroke-opacity="0.65" stroke-width="0.660256" stroke-linecap="round"/>
<defs>
<filter id="filter0_ii_138_37665" x="40.938" y="4.23853" width="31.0854" height="22.2765" filterUnits="userSpaceOnUse" color-interpolation-filters="sRGB">
<feFlood flood-opacity="0" result="BackgroundImageFix"/>
<feBlend mode="normal" in="SourceGraphic" in2="BackgroundImageFix" result="shape"/>
<feColorMatrix in="SourceAlpha" type="matrix" values="0 0 0 0 0 0 0 0 0 0 0 0 0 0 0 0 0 0 127 0" result="hardAlpha"/>
<feOffset/>
<feGaussianBlur stdDeviation="3.30128"/>
<feComposite in2="hardAlpha" operator="arithmetic" k2="-1" k3="1"/>
<feColorMatrix type="matrix" values="0 0 0 0 0.0301 0 0 0 0 0.534448 0 0 0 0 1 0 0 0 0.54 0"/>
<feBlend mode="normal" in2="shape" result="effect1_innerShadow_138_37665"/>
<feColorMatrix in="SourceAlpha" type="matrix" values="0 0 0 0 0 0 0 0 0 0 0 0 0 0 0 0 0 0 127 0" result="hardAlpha"/>
<feOffset dx="3.96154" dy="2.64102"/>
<feGaussianBlur stdDeviation="2.64102"/>
<feComposite in2="hardAlpha" operator="arithmetic" k2="-1" k3="1"/>
<feColorMatrix type="matrix" values="0 0 0 0 0.812507 0 0 0 0 0.925004 0 0 0 0 1 0 0 0 0.28 0"/>
<feBlend mode="normal" in2="effect1_innerShadow_138_37665" result="effect2_innerShadow_138_37665"/>
</filter>
<filter id="filter1_ii_138_37665" x="12.0455" y="42.1799" width="13.3007" height="12.9655" filterUnits="userSpaceOnUse" color-interpolation-filters="sRGB">
<feFlood flood-opacity="0" result="BackgroundImageFix"/>
<feBlend mode="normal" in="SourceGraphic" in2="BackgroundImageFix" result="shape"/>
<feColorMatrix in="SourceAlpha" type="matrix" values="0 0 0 0 0 0 0 0 0 0 0 0 0 0 0 0 0 0 127 0" result="hardAlpha"/>
<feOffset/>
<feGaussianBlur stdDeviation="2.37595"/>
<feComposite in2="hardAlpha" operator="arithmetic" k2="-1" k3="1"/>
<feColorMatrix type="matrix" values="0 0 0 0 0.0301 0 0 0 0 0.534448 0 0 0 0 1 0 0 0 0.54 0"/>
<feBlend mode="normal" in2="shape" result="effect1_innerShadow_138_37665"/>
<feColorMatrix in="SourceAlpha" type="matrix" values="0 0 0 0 0 0 0 0 0 0 0 0 0 0 0 0 0 0 127 0" result="hardAlpha"/>
<feOffset dx="2.85114" dy="1.90076"/>
<feGaussianBlur stdDeviation="1.90076"/>
<feComposite in2="hardAlpha" operator="arithmetic" k2="-1" k3="1"/>
<feColorMatrix type="matrix" values="0 0 0 0 0.812507 0 0 0 0 0.925004 0 0 0 0 1 0 0 0 0.28 0"/>
<feBlend mode="normal" in2="effect1_innerShadow_138_37665" result="effect2_innerShadow_138_37665"/>
</filter>
<filter id="filter2_ii_138_37665" x="0.741821" y="42.1799" width="13.3007" height="12.9655" filterUnits="userSpaceOnUse" color-interpolation-filters="sRGB">
<feFlood flood-opacity="0" result="BackgroundImageFix"/>
<feBlend mode="normal" in="SourceGraphic" in2="BackgroundImageFix" result="shape"/>
<feColorMatrix in="SourceAlpha" type="matrix" values="0 0 0 0 0 0 0 0 0 0 0 0 0 0 0 0 0 0 127 0" result="hardAlpha"/>
<feOffset/>
<feGaussianBlur stdDeviation="2.37595"/>
<feComposite in2="hardAlpha" operator="arithmetic" k2="-1" k3="1"/>
<feColorMatrix type="matrix" values="0 0 0 0 0.0301 0 0 0 0 0.534448 0 0 0 0 1 0 0 0 0.54 0"/>
<feBlend mode="normal" in2="shape" result="effect1_innerShadow_138_37665"/>
<feColorMatrix in="SourceAlpha" type="matrix" values="0 0 0 0 0 0 0 0 0 0 0 0 0 0 0 0 0 0 127 0" result="hardAlpha"/>
<feOffset dx="2.85114" dy="1.90076"/>
<feGaussianBlur stdDeviation="1.90076"/>
<feComposite in2="hardAlpha" operator="arithmetic" k2="-1" k3="1"/>
<feColorMatrix type="matrix" values="0 0 0 0 0.812507 0 0 0 0 0.925004 0 0 0 0 1 0 0 0 0.28 0"/>
<feBlend mode="normal" in2="effect1_innerShadow_138_37665" result="effect2_innerShadow_138_37665"/>
</filter>
<filter id="filter3_ii_138_37665" x="1.03674" y="37.8359" width="24.1116" height="9.52356" filterUnits="userSpaceOnUse" color-interpolation-filters="sRGB">
<feFlood flood-opacity="0" result="BackgroundImageFix"/>
<feBlend mode="normal" in="SourceGraphic" in2="BackgroundImageFix" result="shape"/>
<feColorMatrix in="SourceAlpha" type="matrix" values="0 0 0 0 0 0 0 0 0 0 0 0 0 0 0 0 0 0 127 0" result="hardAlpha"/>
<feOffset/>
<feGaussianBlur stdDeviation="2.37595"/>
<feComposite in2="hardAlpha" operator="arithmetic" k2="-1" k3="1"/>
<feColorMatrix type="matrix" values="0 0 0 0 0.0301 0 0 0 0 0.534448 0 0 0 0 1 0 0 0 0.54 0"/>
<feBlend mode="normal" in2="shape" result="effect1_innerShadow_138_37665"/>
<feColorMatrix in="SourceAlpha" type="matrix" values="0 0 0 0 0 0 0 0 0 0 0 0 0 0 0 0 0 0 127 0" result="hardAlpha"/>
<feOffset dx="2.85114" dy="1.90076"/>
<feGaussianBlur stdDeviation="1.90076"/>
<feComposite in2="hardAlpha" operator="arithmetic" k2="-1" k3="1"/>
<feColorMatrix type="matrix" values="0 0 0 0 0.812507 0 0 0 0 0.925004 0 0 0 0 1 0 0 0 0.28 0"/>
<feBlend mode="normal" in2="effect1_innerShadow_138_37665" result="effect2_innerShadow_138_37665"/>
</filter>
<filter id="filter4_ii_138_37665" x="54.927" y="42.1799" width="13.3007" height="12.9655" filterUnits="userSpaceOnUse" color-interpolation-filters="sRGB">
<feFlood flood-opacity="0" result="BackgroundImageFix"/>
<feBlend mode="normal" in="SourceGraphic" in2="BackgroundImageFix" result="shape"/>
<feColorMatrix in="SourceAlpha" type="matrix" values="0 0 0 0 0 0 0 0 0 0 0 0 0 0 0 0 0 0 127 0" result="hardAlpha"/>
<feOffset/>
<feGaussianBlur stdDeviation="2.37595"/>
<feComposite in2="hardAlpha" operator="arithmetic" k2="-1" k3="1"/>
<feColorMatrix type="matrix" values="0 0 0 0 0.0301 0 0 0 0 0.534448 0 0 0 0 1 0 0 0 0.54 0"/>
<feBlend mode="normal" in2="shape" result="effect1_innerShadow_138_37665"/>
<feColorMatrix in="SourceAlpha" type="matrix" values="0 0 0 0 0 0 0 0 0 0 0 0 0 0 0 0 0 0 127 0" result="hardAlpha"/>
<feOffset dx="2.85114" dy="1.90076"/>
<feGaussianBlur stdDeviation="1.90076"/>
<feComposite in2="hardAlpha" operator="arithmetic" k2="-1" k3="1"/>
<feColorMatrix type="matrix" values="0 0 0 0 0.812507 0 0 0 0 0.925004 0 0 0 0 1 0 0 0 0.28 0"/>
<feBlend mode="normal" in2="effect1_innerShadow_138_37665" result="effect2_innerShadow_138_37665"/>
</filter>
<filter id="filter5_ii_138_37665" x="43.6233" y="42.1799" width="13.3007" height="12.9655" filterUnits="userSpaceOnUse" color-interpolation-filters="sRGB">
<feFlood flood-opacity="0" result="BackgroundImageFix"/>
<feBlend mode="normal" in="SourceGraphic" in2="BackgroundImageFix" result="shape"/>
<feColorMatrix in="SourceAlpha" type="matrix" values="0 0 0 0 0 0 0 0 0 0 0 0 0 0 0 0 0 0 127 0" result="hardAlpha"/>
<feOffset/>
<feGaussianBlur stdDeviation="2.37595"/>
<feComposite in2="hardAlpha" operator="arithmetic" k2="-1" k3="1"/>
<feColorMatrix type="matrix" values="0 0 0 0 0.0301 0 0 0 0 0.534448 0 0 0 0 1 0 0 0 0.54 0"/>
<feBlend mode="normal" in2="shape" result="effect1_innerShadow_138_37665"/>
<feColorMatrix in="SourceAlpha" type="matrix" values="0 0 0 0 0 0 0 0 0 0 0 0 0 0 0 0 0 0 127 0" result="hardAlpha"/>
<feOffset dx="2.85114" dy="1.90076"/>
<feGaussianBlur stdDeviation="1.90076"/>
<feComposite in2="hardAlpha" operator="arithmetic" k2="-1" k3="1"/>
<feColorMatrix type="matrix" values="0 0 0 0 0.812507 0 0 0 0 0.925004 0 0 0 0 1 0 0 0 0.28 0"/>
<feBlend mode="normal" in2="effect1_innerShadow_138_37665" result="effect2_innerShadow_138_37665"/>
</filter>
<filter id="filter6_ii_138_37665" x="43.9183" y="37.8359" width="24.1116" height="9.52356" filterUnits="userSpaceOnUse" color-interpolation-filters="sRGB">
<feFlood flood-opacity="0" result="BackgroundImageFix"/>
<feBlend mode="normal" in="SourceGraphic" in2="BackgroundImageFix" result="shape"/>
<feColorMatrix in="SourceAlpha" type="matrix" values="0 0 0 0 0 0 0 0 0 0 0 0 0 0 0 0 0 0 127 0" result="hardAlpha"/>
<feOffset/>
<feGaussianBlur stdDeviation="2.37595"/>
<feComposite in2="hardAlpha" operator="arithmetic" k2="-1" k3="1"/>
<feColorMatrix type="matrix" values="0 0 0 0 0.0301 0 0 0 0 0.534448 0 0 0 0 1 0 0 0 0.54 0"/>
<feBlend mode="normal" in2="shape" result="effect1_innerShadow_138_37665"/>
<feColorMatrix in="SourceAlpha" type="matrix" values="0 0 0 0 0 0 0 0 0 0 0 0 0 0 0 0 0 0 127 0" result="hardAlpha"/>
<feOffset dx="2.85114" dy="1.90076"/>
<feGaussianBlur stdDeviation="1.90076"/>
<feComposite in2="hardAlpha" operator="arithmetic" k2="-1" k3="1"/>
<feColorMatrix type="matrix" values="0 0 0 0 0.812507 0 0 0 0 0.925004 0 0 0 0 1 0 0 0 0.28 0"/>
<feBlend mode="normal" in2="effect1_innerShadow_138_37665" result="effect2_innerShadow_138_37665"/>
</filter>
<filter id="filter7_ii_138_37665" x="97.8085" y="42.1799" width="13.3007" height="12.9655" filterUnits="userSpaceOnUse" color-interpolation-filters="sRGB">
<feFlood flood-opacity="0" result="BackgroundImageFix"/>
<feBlend mode="normal" in="SourceGraphic" in2="BackgroundImageFix" result="shape"/>
<feColorMatrix in="SourceAlpha" type="matrix" values="0 0 0 0 0 0 0 0 0 0 0 0 0 0 0 0 0 0 127 0" result="hardAlpha"/>
<feOffset/>
<feGaussianBlur stdDeviation="2.37595"/>
<feComposite in2="hardAlpha" operator="arithmetic" k2="-1" k3="1"/>
<feColorMatrix type="matrix" values="0 0 0 0 0.0301 0 0 0 0 0.534448 0 0 0 0 1 0 0 0 0.54 0"/>
<feBlend mode="normal" in2="shape" result="effect1_innerShadow_138_37665"/>
<feColorMatrix in="SourceAlpha" type="matrix" values="0 0 0 0 0 0 0 0 0 0 0 0 0 0 0 0 0 0 127 0" result="hardAlpha"/>
<feOffset dx="2.85114" dy="1.90076"/>
<feGaussianBlur stdDeviation="1.90076"/>
<feComposite in2="hardAlpha" operator="arithmetic" k2="-1" k3="1"/>
<feColorMatrix type="matrix" values="0 0 0 0 0.812507 0 0 0 0 0.925004 0 0 0 0 1 0 0 0 0.28 0"/>
<feBlend mode="normal" in2="effect1_innerShadow_138_37665" result="effect2_innerShadow_138_37665"/>
</filter>
<filter id="filter8_ii_138_37665" x="86.5048" y="42.1799" width="13.3007" height="12.9655" filterUnits="userSpaceOnUse" color-interpolation-filters="sRGB">
<feFlood flood-opacity="0" result="BackgroundImageFix"/>
<feBlend mode="normal" in="SourceGraphic" in2="BackgroundImageFix" result="shape"/>
<feColorMatrix in="SourceAlpha" type="matrix" values="0 0 0 0 0 0 0 0 0 0 0 0 0 0 0 0 0 0 127 0" result="hardAlpha"/>
<feOffset/>
<feGaussianBlur stdDeviation="2.37595"/>
<feComposite in2="hardAlpha" operator="arithmetic" k2="-1" k3="1"/>
<feColorMatrix type="matrix" values="0 0 0 0 0.0301 0 0 0 0 0.534448 0 0 0 0 1 0 0 0 0.54 0"/>
<feBlend mode="normal" in2="shape" result="effect1_innerShadow_138_37665"/>
<feColorMatrix in="SourceAlpha" type="matrix" values="0 0 0 0 0 0 0 0 0 0 0 0 0 0 0 0 0 0 127 0" result="hardAlpha"/>
<feOffset dx="2.85114" dy="1.90076"/>
<feGaussianBlur stdDeviation="1.90076"/>
<feComposite in2="hardAlpha" operator="arithmetic" k2="-1" k3="1"/>
<feColorMatrix type="matrix" values="0 0 0 0 0.812507 0 0 0 0 0.925004 0 0 0 0 1 0 0 0 0.28 0"/>
<feBlend mode="normal" in2="effect1_innerShadow_138_37665" result="effect2_innerShadow_138_37665"/>
</filter>
<filter id="filter9_ii_138_37665" x="86.7998" y="37.8359" width="24.1116" height="9.52356" filterUnits="userSpaceOnUse" color-interpolation-filters="sRGB">
<feFlood flood-opacity="0" result="BackgroundImageFix"/>
<feBlend mode="normal" in="SourceGraphic" in2="BackgroundImageFix" result="shape"/>
<feColorMatrix in="SourceAlpha" type="matrix" values="0 0 0 0 0 0 0 0 0 0 0 0 0 0 0 0 0 0 127 0" result="hardAlpha"/>
<feOffset/>
<feGaussianBlur stdDeviation="2.37595"/>
<feComposite in2="hardAlpha" operator="arithmetic" k2="-1" k3="1"/>
<feColorMatrix type="matrix" values="0 0 0 0 0.0301 0 0 0 0 0.534448 0 0 0 0 1 0 0 0 0.54 0"/>
<feBlend mode="normal" in2="shape" result="effect1_innerShadow_138_37665"/>
<feColorMatrix in="SourceAlpha" type="matrix" values="0 0 0 0 0 0 0 0 0 0 0 0 0 0 0 0 0 0 127 0" result="hardAlpha"/>
<feOffset dx="2.85114" dy="1.90076"/>
<feGaussianBlur stdDeviation="1.90076"/>
<feComposite in2="hardAlpha" operator="arithmetic" k2="-1" k3="1"/>
<feColorMatrix type="matrix" values="0 0 0 0 0.812507 0 0 0 0 0.925004 0 0 0 0 1 0 0 0 0.28 0"/>
<feBlend mode="normal" in2="effect1_innerShadow_138_37665" result="effect2_innerShadow_138_37665"/>
</filter>
<linearGradient id="paint0_linear_138_37665" x1="49.6176" y1="3.84577" x2="128.548" y2="3.84577" gradientUnits="userSpaceOnUse">
<stop offset="0.0629444" stop-color="#7D8B94"/>
<stop offset="0.0630444" stop-color="#2F3335"/>
</linearGradient>
<linearGradient id="paint1_linear_138_37665" x1="53.8736" y1="18.6859" x2="53.8527" y2="33.5593" gradientUnits="userSpaceOnUse">
<stop stop-color="#007063"/>
<stop offset="1" stop-color="#8AFFF1"/>
</linearGradient>
<linearGradient id="paint2_linear_138_37665" x1="15.3894" y1="41.9586" x2="45.7977" y2="41.9586" gradientUnits="userSpaceOnUse">
<stop offset="0.0629444" stop-color="#7D8B94"/>
<stop offset="0.0630444" stop-color="#2F3335"/>
</linearGradient>
<linearGradient id="paint3_linear_138_37665" x1="3.40648" y1="41.4916" x2="37.0395" y2="42.6034" gradientUnits="userSpaceOnUse">
<stop offset="0.0629444" stop-color="#7D8B94"/>
<stop offset="0.0630444" stop-color="#2F3335"/>
</linearGradient>
<linearGradient id="paint4_linear_138_37665" x1="9.96761" y1="36.182" x2="45.7598" y2="38.4586" gradientUnits="userSpaceOnUse">
<stop offset="0.0629444" stop-color="#7D8B94"/>
<stop offset="0.0630444" stop-color="#2F3335"/>
</linearGradient>
<linearGradient id="paint5_linear_138_37665" x1="58.2709" y1="41.9586" x2="88.6792" y2="41.9586" gradientUnits="userSpaceOnUse">
<stop offset="0.0629444" stop-color="#7D8B94"/>
<stop offset="0.0630444" stop-color="#2F3335"/>
</linearGradient>
<linearGradient id="paint6_linear_138_37665" x1="46.2879" y1="41.4916" x2="79.921" y2="42.6034" gradientUnits="userSpaceOnUse">
<stop offset="0.0629444" stop-color="#7D8B94"/>
<stop offset="0.0630444" stop-color="#2F3335"/>
</linearGradient>
<linearGradient id="paint7_linear_138_37665" x1="52.8492" y1="36.182" x2="88.6414" y2="38.4586" gradientUnits="userSpaceOnUse">
<stop offset="0.0629444" stop-color="#7D8B94"/>
<stop offset="0.0630444" stop-color="#2F3335"/>
</linearGradient>
<linearGradient id="paint8_linear_138_37665" x1="101.152" y1="41.9586" x2="131.561" y2="41.9586" gradientUnits="userSpaceOnUse">
<stop offset="0.0629444" stop-color="#7D8B94"/>
<stop offset="0.0630444" stop-color="#2F3335"/>
</linearGradient>
<linearGradient id="paint9_linear_138_37665" x1="89.1694" y1="41.4916" x2="122.802" y2="42.6034" gradientUnits="userSpaceOnUse">
<stop offset="0.0629444" stop-color="#7D8B94"/>
<stop offset="0.0630444" stop-color="#2F3335"/>
</linearGradient>
<linearGradient id="paint10_linear_138_37665" x1="95.7307" y1="36.182" x2="131.523" y2="38.4586" gradientUnits="userSpaceOnUse">
<stop offset="0.0629444" stop-color="#7D8B94"/>
<stop offset="0.0630444" stop-color="#2F3335"/>
</linearGradient>
</defs>
</svg>
